<mxfile host="app.diagrams.net" modified="2024-02-23T16:46:20.232Z" agent="Mozilla/5.0 (Windows NT 10.0; Win64; x64) AppleWebKit/537.36 (KHTML, like Gecko) Chrome/121.0.0.0 Safari/537.36" etag="YaxcLHfUBVIUspS1npTE" version="23.1.5" type="github">
  <diagram name="Page-1" id="0CUOTw0v8iw9t1YHOVN5">
    <mxGraphModel dx="3292" dy="1282" grid="1" gridSize="10" guides="1" tooltips="1" connect="1" arrows="1" fold="1" page="1" pageScale="1" pageWidth="850" pageHeight="1100" math="0" shadow="0">
      <root>
        <mxCell id="0" />
        <mxCell id="1" parent="0" />
        <mxCell id="DY3PiAdyVnmW26J06P4--7" value="" style="group" vertex="1" connectable="0" parent="1">
          <mxGeometry x="160" y="60" width="96" height="140" as="geometry" />
        </mxCell>
        <mxCell id="DY3PiAdyVnmW26J06P4--1" value="" style="rounded=0;whiteSpace=wrap;html=1;" vertex="1" parent="DY3PiAdyVnmW26J06P4--7">
          <mxGeometry width="96" height="140" as="geometry" />
        </mxCell>
        <mxCell id="DY3PiAdyVnmW26J06P4--2" value="" style="triangle;whiteSpace=wrap;html=1;rotation=0;" vertex="1" parent="DY3PiAdyVnmW26J06P4--7">
          <mxGeometry y="100" width="20" height="30" as="geometry" />
        </mxCell>
        <mxCell id="DY3PiAdyVnmW26J06P4--3" value="&lt;font style=&quot;font-size: 21px;&quot;&gt;D&lt;/font&gt;" style="text;html=1;strokeColor=none;fillColor=none;align=center;verticalAlign=middle;whiteSpace=wrap;rounded=0;" vertex="1" parent="DY3PiAdyVnmW26J06P4--7">
          <mxGeometry y="10" width="20" height="30" as="geometry" />
        </mxCell>
        <mxCell id="DY3PiAdyVnmW26J06P4--4" value="&lt;font style=&quot;font-size: 21px;&quot;&gt;Q&lt;/font&gt;" style="text;html=1;strokeColor=none;fillColor=none;align=center;verticalAlign=middle;whiteSpace=wrap;rounded=0;" vertex="1" parent="DY3PiAdyVnmW26J06P4--7">
          <mxGeometry x="76" y="10" width="20" height="30" as="geometry" />
        </mxCell>
        <mxCell id="DY3PiAdyVnmW26J06P4--5" value="&lt;font style=&quot;font-size: 21px;&quot;&gt;RST&lt;/font&gt;" style="text;html=1;strokeColor=none;fillColor=none;align=center;verticalAlign=middle;whiteSpace=wrap;rounded=0;" vertex="1" parent="DY3PiAdyVnmW26J06P4--7">
          <mxGeometry x="33" y="110" width="30" height="30" as="geometry" />
        </mxCell>
        <mxCell id="DY3PiAdyVnmW26J06P4--8" value="" style="group" vertex="1" connectable="0" parent="1">
          <mxGeometry x="360" y="60" width="96" height="140" as="geometry" />
        </mxCell>
        <mxCell id="DY3PiAdyVnmW26J06P4--9" value="" style="rounded=0;whiteSpace=wrap;html=1;" vertex="1" parent="DY3PiAdyVnmW26J06P4--8">
          <mxGeometry width="96" height="140" as="geometry" />
        </mxCell>
        <mxCell id="DY3PiAdyVnmW26J06P4--10" value="" style="triangle;whiteSpace=wrap;html=1;rotation=0;" vertex="1" parent="DY3PiAdyVnmW26J06P4--8">
          <mxGeometry y="100" width="20" height="30" as="geometry" />
        </mxCell>
        <mxCell id="DY3PiAdyVnmW26J06P4--11" value="&lt;font style=&quot;font-size: 21px;&quot;&gt;D&lt;/font&gt;" style="text;html=1;strokeColor=none;fillColor=none;align=center;verticalAlign=middle;whiteSpace=wrap;rounded=0;" vertex="1" parent="DY3PiAdyVnmW26J06P4--8">
          <mxGeometry y="10" width="20" height="30" as="geometry" />
        </mxCell>
        <mxCell id="DY3PiAdyVnmW26J06P4--12" value="&lt;font style=&quot;font-size: 21px;&quot;&gt;Q&lt;/font&gt;" style="text;html=1;strokeColor=none;fillColor=none;align=center;verticalAlign=middle;whiteSpace=wrap;rounded=0;" vertex="1" parent="DY3PiAdyVnmW26J06P4--8">
          <mxGeometry x="76" y="10" width="20" height="30" as="geometry" />
        </mxCell>
        <mxCell id="DY3PiAdyVnmW26J06P4--13" value="&lt;font style=&quot;font-size: 21px;&quot;&gt;RST&lt;/font&gt;" style="text;html=1;strokeColor=none;fillColor=none;align=center;verticalAlign=middle;whiteSpace=wrap;rounded=0;" vertex="1" parent="DY3PiAdyVnmW26J06P4--8">
          <mxGeometry x="33" y="110" width="30" height="30" as="geometry" />
        </mxCell>
        <mxCell id="DY3PiAdyVnmW26J06P4--14" value="" style="group" vertex="1" connectable="0" parent="1">
          <mxGeometry x="560" y="60" width="96" height="140" as="geometry" />
        </mxCell>
        <mxCell id="DY3PiAdyVnmW26J06P4--15" value="" style="rounded=0;whiteSpace=wrap;html=1;" vertex="1" parent="DY3PiAdyVnmW26J06P4--14">
          <mxGeometry width="96" height="140" as="geometry" />
        </mxCell>
        <mxCell id="DY3PiAdyVnmW26J06P4--16" value="" style="triangle;whiteSpace=wrap;html=1;rotation=0;" vertex="1" parent="DY3PiAdyVnmW26J06P4--14">
          <mxGeometry y="100" width="20" height="30" as="geometry" />
        </mxCell>
        <mxCell id="DY3PiAdyVnmW26J06P4--17" value="&lt;font style=&quot;font-size: 21px;&quot;&gt;D&lt;/font&gt;" style="text;html=1;strokeColor=none;fillColor=none;align=center;verticalAlign=middle;whiteSpace=wrap;rounded=0;" vertex="1" parent="DY3PiAdyVnmW26J06P4--14">
          <mxGeometry y="10" width="20" height="30" as="geometry" />
        </mxCell>
        <mxCell id="DY3PiAdyVnmW26J06P4--18" value="&lt;font style=&quot;font-size: 21px;&quot;&gt;Q&lt;/font&gt;" style="text;html=1;strokeColor=none;fillColor=none;align=center;verticalAlign=middle;whiteSpace=wrap;rounded=0;" vertex="1" parent="DY3PiAdyVnmW26J06P4--14">
          <mxGeometry x="76" y="10" width="20" height="30" as="geometry" />
        </mxCell>
        <mxCell id="DY3PiAdyVnmW26J06P4--19" value="&lt;font style=&quot;font-size: 21px;&quot;&gt;RST&lt;/font&gt;" style="text;html=1;strokeColor=none;fillColor=none;align=center;verticalAlign=middle;whiteSpace=wrap;rounded=0;" vertex="1" parent="DY3PiAdyVnmW26J06P4--14">
          <mxGeometry x="33" y="110" width="30" height="30" as="geometry" />
        </mxCell>
        <mxCell id="DY3PiAdyVnmW26J06P4--20" value="" style="group" vertex="1" connectable="0" parent="1">
          <mxGeometry x="760" y="60" width="96" height="140" as="geometry" />
        </mxCell>
        <mxCell id="DY3PiAdyVnmW26J06P4--21" value="" style="rounded=0;whiteSpace=wrap;html=1;" vertex="1" parent="DY3PiAdyVnmW26J06P4--20">
          <mxGeometry width="96" height="140" as="geometry" />
        </mxCell>
        <mxCell id="DY3PiAdyVnmW26J06P4--22" value="" style="triangle;whiteSpace=wrap;html=1;rotation=0;" vertex="1" parent="DY3PiAdyVnmW26J06P4--20">
          <mxGeometry y="100" width="20" height="30" as="geometry" />
        </mxCell>
        <mxCell id="DY3PiAdyVnmW26J06P4--23" value="&lt;font style=&quot;font-size: 21px;&quot;&gt;D&lt;/font&gt;" style="text;html=1;strokeColor=none;fillColor=none;align=center;verticalAlign=middle;whiteSpace=wrap;rounded=0;" vertex="1" parent="DY3PiAdyVnmW26J06P4--20">
          <mxGeometry y="10" width="20" height="30" as="geometry" />
        </mxCell>
        <mxCell id="DY3PiAdyVnmW26J06P4--24" value="&lt;font style=&quot;font-size: 21px;&quot;&gt;Q&lt;/font&gt;" style="text;html=1;strokeColor=none;fillColor=none;align=center;verticalAlign=middle;whiteSpace=wrap;rounded=0;" vertex="1" parent="DY3PiAdyVnmW26J06P4--20">
          <mxGeometry x="76" y="10" width="20" height="30" as="geometry" />
        </mxCell>
        <mxCell id="DY3PiAdyVnmW26J06P4--25" value="&lt;font style=&quot;font-size: 21px;&quot;&gt;RST&lt;/font&gt;" style="text;html=1;strokeColor=none;fillColor=none;align=center;verticalAlign=middle;whiteSpace=wrap;rounded=0;" vertex="1" parent="DY3PiAdyVnmW26J06P4--20">
          <mxGeometry x="33" y="110" width="30" height="30" as="geometry" />
        </mxCell>
        <mxCell id="DY3PiAdyVnmW26J06P4--26" value="" style="group" vertex="1" connectable="0" parent="1">
          <mxGeometry x="960" y="60" width="96" height="140" as="geometry" />
        </mxCell>
        <mxCell id="DY3PiAdyVnmW26J06P4--27" value="" style="rounded=0;whiteSpace=wrap;html=1;" vertex="1" parent="DY3PiAdyVnmW26J06P4--26">
          <mxGeometry width="96" height="140" as="geometry" />
        </mxCell>
        <mxCell id="DY3PiAdyVnmW26J06P4--28" value="" style="triangle;whiteSpace=wrap;html=1;rotation=0;" vertex="1" parent="DY3PiAdyVnmW26J06P4--26">
          <mxGeometry y="100" width="20" height="30" as="geometry" />
        </mxCell>
        <mxCell id="DY3PiAdyVnmW26J06P4--29" value="&lt;font style=&quot;font-size: 21px;&quot;&gt;D&lt;/font&gt;" style="text;html=1;strokeColor=none;fillColor=none;align=center;verticalAlign=middle;whiteSpace=wrap;rounded=0;" vertex="1" parent="DY3PiAdyVnmW26J06P4--26">
          <mxGeometry y="10" width="20" height="30" as="geometry" />
        </mxCell>
        <mxCell id="DY3PiAdyVnmW26J06P4--30" value="&lt;font style=&quot;font-size: 21px;&quot;&gt;Q&lt;/font&gt;" style="text;html=1;strokeColor=none;fillColor=none;align=center;verticalAlign=middle;whiteSpace=wrap;rounded=0;" vertex="1" parent="DY3PiAdyVnmW26J06P4--26">
          <mxGeometry x="76" y="10" width="20" height="30" as="geometry" />
        </mxCell>
        <mxCell id="DY3PiAdyVnmW26J06P4--31" value="&lt;font style=&quot;font-size: 21px;&quot;&gt;RST&lt;/font&gt;" style="text;html=1;strokeColor=none;fillColor=none;align=center;verticalAlign=middle;whiteSpace=wrap;rounded=0;" vertex="1" parent="DY3PiAdyVnmW26J06P4--26">
          <mxGeometry x="33" y="110" width="30" height="30" as="geometry" />
        </mxCell>
        <mxCell id="DY3PiAdyVnmW26J06P4--32" value="" style="group" vertex="1" connectable="0" parent="1">
          <mxGeometry x="1160" y="60" width="96" height="140" as="geometry" />
        </mxCell>
        <mxCell id="DY3PiAdyVnmW26J06P4--33" value="" style="rounded=0;whiteSpace=wrap;html=1;" vertex="1" parent="DY3PiAdyVnmW26J06P4--32">
          <mxGeometry width="96" height="140" as="geometry" />
        </mxCell>
        <mxCell id="DY3PiAdyVnmW26J06P4--34" value="" style="triangle;whiteSpace=wrap;html=1;rotation=0;" vertex="1" parent="DY3PiAdyVnmW26J06P4--32">
          <mxGeometry y="100" width="20" height="30" as="geometry" />
        </mxCell>
        <mxCell id="DY3PiAdyVnmW26J06P4--35" value="&lt;font style=&quot;font-size: 21px;&quot;&gt;D&lt;/font&gt;" style="text;html=1;strokeColor=none;fillColor=none;align=center;verticalAlign=middle;whiteSpace=wrap;rounded=0;" vertex="1" parent="DY3PiAdyVnmW26J06P4--32">
          <mxGeometry y="10" width="20" height="30" as="geometry" />
        </mxCell>
        <mxCell id="DY3PiAdyVnmW26J06P4--36" value="&lt;font style=&quot;font-size: 21px;&quot;&gt;Q&lt;/font&gt;" style="text;html=1;strokeColor=none;fillColor=none;align=center;verticalAlign=middle;whiteSpace=wrap;rounded=0;" vertex="1" parent="DY3PiAdyVnmW26J06P4--32">
          <mxGeometry x="76" y="10" width="20" height="30" as="geometry" />
        </mxCell>
        <mxCell id="DY3PiAdyVnmW26J06P4--37" value="&lt;font style=&quot;font-size: 21px;&quot;&gt;RST&lt;/font&gt;" style="text;html=1;strokeColor=none;fillColor=none;align=center;verticalAlign=middle;whiteSpace=wrap;rounded=0;" vertex="1" parent="DY3PiAdyVnmW26J06P4--32">
          <mxGeometry x="33" y="110" width="30" height="30" as="geometry" />
        </mxCell>
        <mxCell id="DY3PiAdyVnmW26J06P4--38" value="" style="group" vertex="1" connectable="0" parent="1">
          <mxGeometry x="1360" y="60" width="96" height="140" as="geometry" />
        </mxCell>
        <mxCell id="DY3PiAdyVnmW26J06P4--39" value="" style="rounded=0;whiteSpace=wrap;html=1;" vertex="1" parent="DY3PiAdyVnmW26J06P4--38">
          <mxGeometry width="96" height="140" as="geometry" />
        </mxCell>
        <mxCell id="DY3PiAdyVnmW26J06P4--40" value="" style="triangle;whiteSpace=wrap;html=1;rotation=0;" vertex="1" parent="DY3PiAdyVnmW26J06P4--38">
          <mxGeometry y="100" width="20" height="30" as="geometry" />
        </mxCell>
        <mxCell id="DY3PiAdyVnmW26J06P4--41" value="&lt;font style=&quot;font-size: 21px;&quot;&gt;D&lt;/font&gt;" style="text;html=1;strokeColor=none;fillColor=none;align=center;verticalAlign=middle;whiteSpace=wrap;rounded=0;" vertex="1" parent="DY3PiAdyVnmW26J06P4--38">
          <mxGeometry y="10" width="20" height="30" as="geometry" />
        </mxCell>
        <mxCell id="DY3PiAdyVnmW26J06P4--42" value="&lt;font style=&quot;font-size: 21px;&quot;&gt;Q&lt;/font&gt;" style="text;html=1;strokeColor=none;fillColor=none;align=center;verticalAlign=middle;whiteSpace=wrap;rounded=0;" vertex="1" parent="DY3PiAdyVnmW26J06P4--38">
          <mxGeometry x="76" y="10" width="20" height="30" as="geometry" />
        </mxCell>
        <mxCell id="DY3PiAdyVnmW26J06P4--43" value="&lt;font style=&quot;font-size: 21px;&quot;&gt;RST&lt;/font&gt;" style="text;html=1;strokeColor=none;fillColor=none;align=center;verticalAlign=middle;whiteSpace=wrap;rounded=0;" vertex="1" parent="DY3PiAdyVnmW26J06P4--38">
          <mxGeometry x="33" y="110" width="30" height="30" as="geometry" />
        </mxCell>
        <mxCell id="DY3PiAdyVnmW26J06P4--45" value="&lt;p style=&quot;line-height: 120%;&quot;&gt;&lt;br&gt;&lt;/p&gt;&lt;p style=&quot;line-height: 120%;&quot;&gt;&lt;br&gt;&lt;/p&gt;" style="shape=offPageConnector;whiteSpace=wrap;html=1;rotation=-90;" vertex="1" parent="1">
          <mxGeometry x="-390" y="160" width="30" height="30" as="geometry" />
        </mxCell>
        <mxCell id="DY3PiAdyVnmW26J06P4--46" value="&lt;font style=&quot;font-size: 22px;&quot;&gt;i_clk&lt;/font&gt;" style="text;html=1;align=center;verticalAlign=middle;resizable=0;points=[];autosize=1;strokeColor=none;fillColor=none;" vertex="1" parent="1">
          <mxGeometry x="-460" y="155" width="70" height="40" as="geometry" />
        </mxCell>
        <mxCell id="DY3PiAdyVnmW26J06P4--47" value="&lt;font style=&quot;font-size: 22px;&quot;&gt;i_rst&lt;/font&gt;" style="text;html=1;align=center;verticalAlign=middle;resizable=0;points=[];autosize=1;strokeColor=none;fillColor=none;" vertex="1" parent="1">
          <mxGeometry x="-460" y="247.5" width="70" height="40" as="geometry" />
        </mxCell>
        <mxCell id="DY3PiAdyVnmW26J06P4--53" style="edgeStyle=orthogonalEdgeStyle;rounded=0;orthogonalLoop=1;jettySize=auto;html=1;exitX=0;exitY=0.5;exitDx=0;exitDy=0;entryX=0;entryY=0.5;entryDx=0;entryDy=0;endArrow=none;endFill=0;" edge="1" parent="1" source="DY3PiAdyVnmW26J06P4--10" target="DY3PiAdyVnmW26J06P4--2">
          <mxGeometry relative="1" as="geometry">
            <Array as="points">
              <mxPoint x="330" y="175" />
              <mxPoint x="330" y="30" />
              <mxPoint x="140" y="30" />
              <mxPoint x="140" y="175" />
            </Array>
          </mxGeometry>
        </mxCell>
        <mxCell id="DY3PiAdyVnmW26J06P4--54" style="edgeStyle=orthogonalEdgeStyle;rounded=0;orthogonalLoop=1;jettySize=auto;html=1;exitX=0;exitY=0.5;exitDx=0;exitDy=0;entryX=0;entryY=0.5;entryDx=0;entryDy=0;endArrow=none;endFill=0;" edge="1" parent="1" source="DY3PiAdyVnmW26J06P4--10" target="DY3PiAdyVnmW26J06P4--16">
          <mxGeometry relative="1" as="geometry">
            <Array as="points">
              <mxPoint x="330" y="175" />
              <mxPoint x="330" y="30" />
              <mxPoint x="530" y="30" />
              <mxPoint x="530" y="175" />
            </Array>
          </mxGeometry>
        </mxCell>
        <mxCell id="DY3PiAdyVnmW26J06P4--55" style="edgeStyle=orthogonalEdgeStyle;rounded=0;orthogonalLoop=1;jettySize=auto;html=1;exitX=0;exitY=0.5;exitDx=0;exitDy=0;endArrow=none;endFill=0;entryX=0;entryY=0.5;entryDx=0;entryDy=0;" edge="1" parent="1" source="DY3PiAdyVnmW26J06P4--16" target="DY3PiAdyVnmW26J06P4--22">
          <mxGeometry relative="1" as="geometry">
            <mxPoint x="720" y="210" as="targetPoint" />
            <Array as="points">
              <mxPoint x="530" y="175" />
              <mxPoint x="530" y="30" />
              <mxPoint x="730" y="30" />
              <mxPoint x="730" y="175" />
            </Array>
          </mxGeometry>
        </mxCell>
        <mxCell id="DY3PiAdyVnmW26J06P4--311" style="edgeStyle=orthogonalEdgeStyle;rounded=0;orthogonalLoop=1;jettySize=auto;html=1;exitX=0.5;exitY=1;exitDx=0;exitDy=0;entryX=0.5;entryY=1;entryDx=0;entryDy=0;endArrow=none;endFill=0;" edge="1" parent="1" source="DY3PiAdyVnmW26J06P4--44" target="DY3PiAdyVnmW26J06P4--304">
          <mxGeometry relative="1" as="geometry" />
        </mxCell>
        <mxCell id="DY3PiAdyVnmW26J06P4--313" style="edgeStyle=orthogonalEdgeStyle;rounded=0;orthogonalLoop=1;jettySize=auto;html=1;exitX=0.5;exitY=1;exitDx=0;exitDy=0;entryX=0.5;entryY=1;entryDx=0;entryDy=0;endArrow=none;endFill=0;" edge="1" parent="1" source="DY3PiAdyVnmW26J06P4--44" target="DY3PiAdyVnmW26J06P4--5">
          <mxGeometry relative="1" as="geometry" />
        </mxCell>
        <mxCell id="DY3PiAdyVnmW26J06P4--314" style="edgeStyle=orthogonalEdgeStyle;rounded=0;orthogonalLoop=1;jettySize=auto;html=1;exitX=0.5;exitY=1;exitDx=0;exitDy=0;entryX=0.5;entryY=1;entryDx=0;entryDy=0;endArrow=none;endFill=0;" edge="1" parent="1" source="DY3PiAdyVnmW26J06P4--44" target="DY3PiAdyVnmW26J06P4--13">
          <mxGeometry relative="1" as="geometry" />
        </mxCell>
        <mxCell id="DY3PiAdyVnmW26J06P4--44" value="&lt;p style=&quot;line-height: 120%;&quot;&gt;&lt;br&gt;&lt;/p&gt;&lt;p style=&quot;line-height: 120%;&quot;&gt;&lt;br&gt;&lt;/p&gt;" style="shape=offPageConnector;whiteSpace=wrap;html=1;rotation=-90;" vertex="1" parent="1">
          <mxGeometry x="-390" y="252.5" width="30" height="30" as="geometry" />
        </mxCell>
        <mxCell id="DY3PiAdyVnmW26J06P4--58" style="edgeStyle=orthogonalEdgeStyle;rounded=0;orthogonalLoop=1;jettySize=auto;html=1;exitX=0;exitY=0.5;exitDx=0;exitDy=0;entryX=0;entryY=0.5;entryDx=0;entryDy=0;endArrow=none;endFill=0;" edge="1" parent="1" source="DY3PiAdyVnmW26J06P4--28" target="DY3PiAdyVnmW26J06P4--22">
          <mxGeometry relative="1" as="geometry">
            <Array as="points">
              <mxPoint x="930" y="175" />
              <mxPoint x="930" y="30" />
              <mxPoint x="730" y="30" />
              <mxPoint x="730" y="175" />
            </Array>
          </mxGeometry>
        </mxCell>
        <mxCell id="DY3PiAdyVnmW26J06P4--59" style="edgeStyle=orthogonalEdgeStyle;rounded=0;orthogonalLoop=1;jettySize=auto;html=1;exitX=0;exitY=0.5;exitDx=0;exitDy=0;entryX=0;entryY=0.5;entryDx=0;entryDy=0;endArrow=none;endFill=0;" edge="1" parent="1" source="DY3PiAdyVnmW26J06P4--34" target="DY3PiAdyVnmW26J06P4--28">
          <mxGeometry relative="1" as="geometry">
            <Array as="points">
              <mxPoint x="1130" y="175" />
              <mxPoint x="1130" y="30" />
              <mxPoint x="930" y="30" />
              <mxPoint x="930" y="175" />
            </Array>
          </mxGeometry>
        </mxCell>
        <mxCell id="DY3PiAdyVnmW26J06P4--60" style="edgeStyle=orthogonalEdgeStyle;rounded=0;orthogonalLoop=1;jettySize=auto;html=1;exitX=0;exitY=0.5;exitDx=0;exitDy=0;entryX=0;entryY=0.5;entryDx=0;entryDy=0;endArrow=none;endFill=0;" edge="1" parent="1" source="DY3PiAdyVnmW26J06P4--40" target="DY3PiAdyVnmW26J06P4--34">
          <mxGeometry relative="1" as="geometry">
            <Array as="points">
              <mxPoint x="1330" y="175" />
              <mxPoint x="1330" y="30" />
              <mxPoint x="1130" y="30" />
              <mxPoint x="1130" y="175" />
            </Array>
          </mxGeometry>
        </mxCell>
        <mxCell id="DY3PiAdyVnmW26J06P4--306" style="edgeStyle=orthogonalEdgeStyle;rounded=0;orthogonalLoop=1;jettySize=auto;html=1;exitX=0.5;exitY=1;exitDx=0;exitDy=0;entryX=0;entryY=0.5;entryDx=0;entryDy=0;endArrow=none;endFill=0;" edge="1" parent="1" source="DY3PiAdyVnmW26J06P4--68" target="DY3PiAdyVnmW26J06P4--302">
          <mxGeometry relative="1" as="geometry" />
        </mxCell>
        <mxCell id="DY3PiAdyVnmW26J06P4--68" value="&lt;p style=&quot;line-height: 120%;&quot;&gt;&lt;br&gt;&lt;/p&gt;&lt;p style=&quot;line-height: 120%;&quot;&gt;&lt;br&gt;&lt;/p&gt;" style="shape=offPageConnector;whiteSpace=wrap;html=1;rotation=-90;" vertex="1" parent="1">
          <mxGeometry x="-390" y="70" width="30" height="30" as="geometry" />
        </mxCell>
        <mxCell id="DY3PiAdyVnmW26J06P4--70" style="edgeStyle=orthogonalEdgeStyle;rounded=0;orthogonalLoop=1;jettySize=auto;html=1;exitX=1;exitY=0.5;exitDx=0;exitDy=0;entryX=0;entryY=0.5;entryDx=0;entryDy=0;endArrow=none;endFill=0;jumpStyle=sharp;" edge="1" parent="1" source="DY3PiAdyVnmW26J06P4--4" target="DY3PiAdyVnmW26J06P4--11">
          <mxGeometry relative="1" as="geometry" />
        </mxCell>
        <mxCell id="DY3PiAdyVnmW26J06P4--71" style="edgeStyle=orthogonalEdgeStyle;rounded=0;orthogonalLoop=1;jettySize=auto;html=1;exitX=1;exitY=0.5;exitDx=0;exitDy=0;entryX=0;entryY=0.5;entryDx=0;entryDy=0;jumpStyle=sharp;endArrow=none;endFill=0;" edge="1" parent="1" source="DY3PiAdyVnmW26J06P4--12" target="DY3PiAdyVnmW26J06P4--17">
          <mxGeometry relative="1" as="geometry" />
        </mxCell>
        <mxCell id="DY3PiAdyVnmW26J06P4--72" style="edgeStyle=orthogonalEdgeStyle;rounded=0;orthogonalLoop=1;jettySize=auto;html=1;exitX=1;exitY=0.5;exitDx=0;exitDy=0;entryX=0;entryY=0.5;entryDx=0;entryDy=0;jumpStyle=sharp;endArrow=none;endFill=0;" edge="1" parent="1" source="DY3PiAdyVnmW26J06P4--18" target="DY3PiAdyVnmW26J06P4--23">
          <mxGeometry relative="1" as="geometry" />
        </mxCell>
        <mxCell id="DY3PiAdyVnmW26J06P4--73" style="edgeStyle=orthogonalEdgeStyle;rounded=0;orthogonalLoop=1;jettySize=auto;html=1;exitX=1;exitY=0.5;exitDx=0;exitDy=0;entryX=0;entryY=0.5;entryDx=0;entryDy=0;jumpStyle=sharp;endArrow=none;endFill=0;" edge="1" parent="1" source="DY3PiAdyVnmW26J06P4--24" target="DY3PiAdyVnmW26J06P4--29">
          <mxGeometry relative="1" as="geometry" />
        </mxCell>
        <mxCell id="DY3PiAdyVnmW26J06P4--74" style="edgeStyle=orthogonalEdgeStyle;rounded=0;orthogonalLoop=1;jettySize=auto;html=1;exitX=1;exitY=0.5;exitDx=0;exitDy=0;entryX=0;entryY=0.5;entryDx=0;entryDy=0;endArrow=none;endFill=0;jumpStyle=sharp;" edge="1" parent="1" source="DY3PiAdyVnmW26J06P4--30" target="DY3PiAdyVnmW26J06P4--35">
          <mxGeometry relative="1" as="geometry" />
        </mxCell>
        <mxCell id="DY3PiAdyVnmW26J06P4--75" style="edgeStyle=orthogonalEdgeStyle;rounded=0;orthogonalLoop=1;jettySize=auto;html=1;exitX=1;exitY=0.5;exitDx=0;exitDy=0;entryX=0;entryY=0.5;entryDx=0;entryDy=0;jumpStyle=sharp;endArrow=none;endFill=0;" edge="1" parent="1" source="DY3PiAdyVnmW26J06P4--36" target="DY3PiAdyVnmW26J06P4--41">
          <mxGeometry relative="1" as="geometry" />
        </mxCell>
        <mxCell id="DY3PiAdyVnmW26J06P4--76" value="&lt;font style=&quot;font-size: 22px;&quot;&gt;i_x&lt;br&gt;&lt;/font&gt;" style="text;html=1;align=center;verticalAlign=middle;resizable=0;points=[];autosize=1;strokeColor=none;fillColor=none;" vertex="1" parent="1">
          <mxGeometry x="-450" y="65" width="50" height="40" as="geometry" />
        </mxCell>
        <mxCell id="DY3PiAdyVnmW26J06P4--86" style="edgeStyle=orthogonalEdgeStyle;rounded=0;orthogonalLoop=1;jettySize=auto;html=1;exitX=0.5;exitY=0;exitDx=0;exitDy=0;entryX=1;entryY=0.5;entryDx=0;entryDy=0;endArrow=none;endFill=0;jumpStyle=sharp;" edge="1" parent="1" source="DY3PiAdyVnmW26J06P4--78" target="DY3PiAdyVnmW26J06P4--4">
          <mxGeometry relative="1" as="geometry" />
        </mxCell>
        <mxCell id="DY3PiAdyVnmW26J06P4--78" value="&lt;font style=&quot;font-size: 30px;&quot;&gt;*&lt;/font&gt;" style="ellipse;whiteSpace=wrap;html=1;aspect=fixed;verticalAlign=bottom;" vertex="1" parent="1">
          <mxGeometry x="270" y="360" width="50" height="50" as="geometry" />
        </mxCell>
        <mxCell id="DY3PiAdyVnmW26J06P4--93" style="edgeStyle=orthogonalEdgeStyle;rounded=0;orthogonalLoop=1;jettySize=auto;html=1;exitX=0.5;exitY=0;exitDx=0;exitDy=0;entryX=1;entryY=0.5;entryDx=0;entryDy=0;jumpStyle=sharp;endArrow=none;endFill=0;" edge="1" parent="1" source="DY3PiAdyVnmW26J06P4--85" target="DY3PiAdyVnmW26J06P4--12">
          <mxGeometry relative="1" as="geometry" />
        </mxCell>
        <mxCell id="DY3PiAdyVnmW26J06P4--85" value="&lt;font style=&quot;font-size: 30px;&quot;&gt;*&lt;/font&gt;" style="ellipse;whiteSpace=wrap;html=1;aspect=fixed;verticalAlign=bottom;" vertex="1" parent="1">
          <mxGeometry x="470" y="360" width="50" height="50" as="geometry" />
        </mxCell>
        <mxCell id="DY3PiAdyVnmW26J06P4--94" style="edgeStyle=orthogonalEdgeStyle;rounded=0;orthogonalLoop=1;jettySize=auto;html=1;exitX=0.5;exitY=0;exitDx=0;exitDy=0;entryX=1;entryY=0.5;entryDx=0;entryDy=0;endArrow=none;endFill=0;jumpStyle=sharp;" edge="1" parent="1" source="DY3PiAdyVnmW26J06P4--87" target="DY3PiAdyVnmW26J06P4--18">
          <mxGeometry relative="1" as="geometry" />
        </mxCell>
        <mxCell id="DY3PiAdyVnmW26J06P4--87" value="&lt;font style=&quot;font-size: 30px;&quot;&gt;*&lt;/font&gt;" style="ellipse;whiteSpace=wrap;html=1;aspect=fixed;verticalAlign=bottom;" vertex="1" parent="1">
          <mxGeometry x="670" y="360" width="50" height="50" as="geometry" />
        </mxCell>
        <mxCell id="DY3PiAdyVnmW26J06P4--95" style="edgeStyle=orthogonalEdgeStyle;rounded=0;orthogonalLoop=1;jettySize=auto;html=1;exitX=0.5;exitY=0;exitDx=0;exitDy=0;entryX=1;entryY=0.5;entryDx=0;entryDy=0;endArrow=none;endFill=0;" edge="1" parent="1" source="DY3PiAdyVnmW26J06P4--88" target="DY3PiAdyVnmW26J06P4--24">
          <mxGeometry relative="1" as="geometry" />
        </mxCell>
        <mxCell id="DY3PiAdyVnmW26J06P4--88" value="&lt;font style=&quot;font-size: 30px;&quot;&gt;*&lt;/font&gt;" style="ellipse;whiteSpace=wrap;html=1;aspect=fixed;verticalAlign=bottom;" vertex="1" parent="1">
          <mxGeometry x="870" y="360" width="50" height="50" as="geometry" />
        </mxCell>
        <mxCell id="DY3PiAdyVnmW26J06P4--96" style="edgeStyle=orthogonalEdgeStyle;rounded=0;orthogonalLoop=1;jettySize=auto;html=1;exitX=0.5;exitY=0;exitDx=0;exitDy=0;entryX=1;entryY=0.5;entryDx=0;entryDy=0;endArrow=none;endFill=0;" edge="1" parent="1" source="DY3PiAdyVnmW26J06P4--89" target="DY3PiAdyVnmW26J06P4--30">
          <mxGeometry relative="1" as="geometry" />
        </mxCell>
        <mxCell id="DY3PiAdyVnmW26J06P4--89" value="&lt;font style=&quot;font-size: 30px;&quot;&gt;*&lt;/font&gt;" style="ellipse;whiteSpace=wrap;html=1;aspect=fixed;verticalAlign=bottom;" vertex="1" parent="1">
          <mxGeometry x="1070" y="360" width="50" height="50" as="geometry" />
        </mxCell>
        <mxCell id="DY3PiAdyVnmW26J06P4--97" style="edgeStyle=orthogonalEdgeStyle;rounded=0;orthogonalLoop=1;jettySize=auto;html=1;exitX=0.5;exitY=0;exitDx=0;exitDy=0;entryX=1;entryY=0.5;entryDx=0;entryDy=0;endArrow=none;endFill=0;" edge="1" parent="1" source="DY3PiAdyVnmW26J06P4--90" target="DY3PiAdyVnmW26J06P4--36">
          <mxGeometry relative="1" as="geometry" />
        </mxCell>
        <mxCell id="DY3PiAdyVnmW26J06P4--90" value="&lt;font style=&quot;font-size: 30px;&quot;&gt;*&lt;/font&gt;" style="ellipse;whiteSpace=wrap;html=1;aspect=fixed;verticalAlign=bottom;" vertex="1" parent="1">
          <mxGeometry x="1270" y="360" width="50" height="50" as="geometry" />
        </mxCell>
        <mxCell id="DY3PiAdyVnmW26J06P4--98" style="edgeStyle=orthogonalEdgeStyle;rounded=0;orthogonalLoop=1;jettySize=auto;html=1;exitX=0.5;exitY=0;exitDx=0;exitDy=0;entryX=1;entryY=0.5;entryDx=0;entryDy=0;endArrow=none;endFill=0;" edge="1" parent="1" source="DY3PiAdyVnmW26J06P4--92" target="DY3PiAdyVnmW26J06P4--42">
          <mxGeometry relative="1" as="geometry" />
        </mxCell>
        <mxCell id="DY3PiAdyVnmW26J06P4--92" value="&lt;font style=&quot;font-size: 30px;&quot;&gt;*&lt;/font&gt;" style="ellipse;whiteSpace=wrap;html=1;aspect=fixed;verticalAlign=bottom;" vertex="1" parent="1">
          <mxGeometry x="1470" y="360" width="50" height="50" as="geometry" />
        </mxCell>
        <mxCell id="DY3PiAdyVnmW26J06P4--99" value="" style="group" vertex="1" connectable="0" parent="1">
          <mxGeometry x="310" y="430" width="96" height="140" as="geometry" />
        </mxCell>
        <mxCell id="DY3PiAdyVnmW26J06P4--100" value="" style="rounded=0;whiteSpace=wrap;html=1;" vertex="1" parent="DY3PiAdyVnmW26J06P4--99">
          <mxGeometry width="96" height="140" as="geometry" />
        </mxCell>
        <mxCell id="DY3PiAdyVnmW26J06P4--101" value="" style="triangle;whiteSpace=wrap;html=1;rotation=0;" vertex="1" parent="DY3PiAdyVnmW26J06P4--99">
          <mxGeometry y="100" width="20" height="30" as="geometry" />
        </mxCell>
        <mxCell id="DY3PiAdyVnmW26J06P4--102" value="&lt;font style=&quot;font-size: 21px;&quot;&gt;D&lt;/font&gt;" style="text;html=1;strokeColor=none;fillColor=none;align=center;verticalAlign=middle;whiteSpace=wrap;rounded=0;" vertex="1" parent="DY3PiAdyVnmW26J06P4--99">
          <mxGeometry y="10" width="20" height="30" as="geometry" />
        </mxCell>
        <mxCell id="DY3PiAdyVnmW26J06P4--103" value="&lt;font style=&quot;font-size: 21px;&quot;&gt;Q&lt;/font&gt;" style="text;html=1;strokeColor=none;fillColor=none;align=center;verticalAlign=middle;whiteSpace=wrap;rounded=0;" vertex="1" parent="DY3PiAdyVnmW26J06P4--99">
          <mxGeometry x="76" y="10" width="20" height="30" as="geometry" />
        </mxCell>
        <mxCell id="DY3PiAdyVnmW26J06P4--104" value="&lt;font style=&quot;font-size: 21px;&quot;&gt;RST&lt;/font&gt;" style="text;html=1;strokeColor=none;fillColor=none;align=center;verticalAlign=middle;whiteSpace=wrap;rounded=0;" vertex="1" parent="DY3PiAdyVnmW26J06P4--99">
          <mxGeometry x="33" y="110" width="30" height="30" as="geometry" />
        </mxCell>
        <mxCell id="DY3PiAdyVnmW26J06P4--105" value="" style="group" vertex="1" connectable="0" parent="1">
          <mxGeometry x="510" y="430" width="96" height="140" as="geometry" />
        </mxCell>
        <mxCell id="DY3PiAdyVnmW26J06P4--106" value="" style="rounded=0;whiteSpace=wrap;html=1;" vertex="1" parent="DY3PiAdyVnmW26J06P4--105">
          <mxGeometry width="96" height="140" as="geometry" />
        </mxCell>
        <mxCell id="DY3PiAdyVnmW26J06P4--107" value="" style="triangle;whiteSpace=wrap;html=1;rotation=0;" vertex="1" parent="DY3PiAdyVnmW26J06P4--105">
          <mxGeometry y="100" width="20" height="30" as="geometry" />
        </mxCell>
        <mxCell id="DY3PiAdyVnmW26J06P4--108" value="&lt;font style=&quot;font-size: 21px;&quot;&gt;D&lt;/font&gt;" style="text;html=1;strokeColor=none;fillColor=none;align=center;verticalAlign=middle;whiteSpace=wrap;rounded=0;" vertex="1" parent="DY3PiAdyVnmW26J06P4--105">
          <mxGeometry y="10" width="20" height="30" as="geometry" />
        </mxCell>
        <mxCell id="DY3PiAdyVnmW26J06P4--109" value="&lt;font style=&quot;font-size: 21px;&quot;&gt;Q&lt;/font&gt;" style="text;html=1;strokeColor=none;fillColor=none;align=center;verticalAlign=middle;whiteSpace=wrap;rounded=0;" vertex="1" parent="DY3PiAdyVnmW26J06P4--105">
          <mxGeometry x="76" y="10" width="20" height="30" as="geometry" />
        </mxCell>
        <mxCell id="DY3PiAdyVnmW26J06P4--110" value="&lt;font style=&quot;font-size: 21px;&quot;&gt;RST&lt;/font&gt;" style="text;html=1;strokeColor=none;fillColor=none;align=center;verticalAlign=middle;whiteSpace=wrap;rounded=0;" vertex="1" parent="DY3PiAdyVnmW26J06P4--105">
          <mxGeometry x="33" y="110" width="30" height="30" as="geometry" />
        </mxCell>
        <mxCell id="DY3PiAdyVnmW26J06P4--111" value="" style="group" vertex="1" connectable="0" parent="1">
          <mxGeometry x="710" y="430" width="96" height="140" as="geometry" />
        </mxCell>
        <mxCell id="DY3PiAdyVnmW26J06P4--112" value="" style="rounded=0;whiteSpace=wrap;html=1;" vertex="1" parent="DY3PiAdyVnmW26J06P4--111">
          <mxGeometry width="96" height="140" as="geometry" />
        </mxCell>
        <mxCell id="DY3PiAdyVnmW26J06P4--113" value="" style="triangle;whiteSpace=wrap;html=1;rotation=0;" vertex="1" parent="DY3PiAdyVnmW26J06P4--111">
          <mxGeometry y="100" width="20" height="30" as="geometry" />
        </mxCell>
        <mxCell id="DY3PiAdyVnmW26J06P4--114" value="&lt;font style=&quot;font-size: 21px;&quot;&gt;D&lt;/font&gt;" style="text;html=1;strokeColor=none;fillColor=none;align=center;verticalAlign=middle;whiteSpace=wrap;rounded=0;" vertex="1" parent="DY3PiAdyVnmW26J06P4--111">
          <mxGeometry y="10" width="20" height="30" as="geometry" />
        </mxCell>
        <mxCell id="DY3PiAdyVnmW26J06P4--115" value="&lt;font style=&quot;font-size: 21px;&quot;&gt;Q&lt;/font&gt;" style="text;html=1;strokeColor=none;fillColor=none;align=center;verticalAlign=middle;whiteSpace=wrap;rounded=0;" vertex="1" parent="DY3PiAdyVnmW26J06P4--111">
          <mxGeometry x="76" y="10" width="20" height="30" as="geometry" />
        </mxCell>
        <mxCell id="DY3PiAdyVnmW26J06P4--116" value="&lt;font style=&quot;font-size: 21px;&quot;&gt;RST&lt;/font&gt;" style="text;html=1;strokeColor=none;fillColor=none;align=center;verticalAlign=middle;whiteSpace=wrap;rounded=0;" vertex="1" parent="DY3PiAdyVnmW26J06P4--111">
          <mxGeometry x="33" y="110" width="30" height="30" as="geometry" />
        </mxCell>
        <mxCell id="DY3PiAdyVnmW26J06P4--117" value="" style="group" vertex="1" connectable="0" parent="1">
          <mxGeometry x="910" y="430" width="96" height="140" as="geometry" />
        </mxCell>
        <mxCell id="DY3PiAdyVnmW26J06P4--118" value="" style="rounded=0;whiteSpace=wrap;html=1;" vertex="1" parent="DY3PiAdyVnmW26J06P4--117">
          <mxGeometry width="96" height="140" as="geometry" />
        </mxCell>
        <mxCell id="DY3PiAdyVnmW26J06P4--119" value="" style="triangle;whiteSpace=wrap;html=1;rotation=0;" vertex="1" parent="DY3PiAdyVnmW26J06P4--117">
          <mxGeometry y="100" width="20" height="30" as="geometry" />
        </mxCell>
        <mxCell id="DY3PiAdyVnmW26J06P4--120" value="&lt;font style=&quot;font-size: 21px;&quot;&gt;D&lt;/font&gt;" style="text;html=1;strokeColor=none;fillColor=none;align=center;verticalAlign=middle;whiteSpace=wrap;rounded=0;" vertex="1" parent="DY3PiAdyVnmW26J06P4--117">
          <mxGeometry y="10" width="20" height="30" as="geometry" />
        </mxCell>
        <mxCell id="DY3PiAdyVnmW26J06P4--121" value="&lt;font style=&quot;font-size: 21px;&quot;&gt;Q&lt;/font&gt;" style="text;html=1;strokeColor=none;fillColor=none;align=center;verticalAlign=middle;whiteSpace=wrap;rounded=0;" vertex="1" parent="DY3PiAdyVnmW26J06P4--117">
          <mxGeometry x="76" y="10" width="20" height="30" as="geometry" />
        </mxCell>
        <mxCell id="DY3PiAdyVnmW26J06P4--122" value="&lt;font style=&quot;font-size: 21px;&quot;&gt;RST&lt;/font&gt;" style="text;html=1;strokeColor=none;fillColor=none;align=center;verticalAlign=middle;whiteSpace=wrap;rounded=0;" vertex="1" parent="DY3PiAdyVnmW26J06P4--117">
          <mxGeometry x="33" y="110" width="30" height="30" as="geometry" />
        </mxCell>
        <mxCell id="DY3PiAdyVnmW26J06P4--123" value="" style="group" vertex="1" connectable="0" parent="1">
          <mxGeometry x="1110" y="430" width="96" height="140" as="geometry" />
        </mxCell>
        <mxCell id="DY3PiAdyVnmW26J06P4--124" value="" style="rounded=0;whiteSpace=wrap;html=1;" vertex="1" parent="DY3PiAdyVnmW26J06P4--123">
          <mxGeometry width="96" height="140" as="geometry" />
        </mxCell>
        <mxCell id="DY3PiAdyVnmW26J06P4--125" value="" style="triangle;whiteSpace=wrap;html=1;rotation=0;" vertex="1" parent="DY3PiAdyVnmW26J06P4--123">
          <mxGeometry y="100" width="20" height="30" as="geometry" />
        </mxCell>
        <mxCell id="DY3PiAdyVnmW26J06P4--126" value="&lt;font style=&quot;font-size: 21px;&quot;&gt;D&lt;/font&gt;" style="text;html=1;strokeColor=none;fillColor=none;align=center;verticalAlign=middle;whiteSpace=wrap;rounded=0;" vertex="1" parent="DY3PiAdyVnmW26J06P4--123">
          <mxGeometry y="10" width="20" height="30" as="geometry" />
        </mxCell>
        <mxCell id="DY3PiAdyVnmW26J06P4--127" value="&lt;font style=&quot;font-size: 21px;&quot;&gt;Q&lt;/font&gt;" style="text;html=1;strokeColor=none;fillColor=none;align=center;verticalAlign=middle;whiteSpace=wrap;rounded=0;" vertex="1" parent="DY3PiAdyVnmW26J06P4--123">
          <mxGeometry x="76" y="10" width="20" height="30" as="geometry" />
        </mxCell>
        <mxCell id="DY3PiAdyVnmW26J06P4--128" value="&lt;font style=&quot;font-size: 21px;&quot;&gt;RST&lt;/font&gt;" style="text;html=1;strokeColor=none;fillColor=none;align=center;verticalAlign=middle;whiteSpace=wrap;rounded=0;" vertex="1" parent="DY3PiAdyVnmW26J06P4--123">
          <mxGeometry x="33" y="110" width="30" height="30" as="geometry" />
        </mxCell>
        <mxCell id="DY3PiAdyVnmW26J06P4--129" value="" style="group" vertex="1" connectable="0" parent="1">
          <mxGeometry x="1310" y="430" width="96" height="140" as="geometry" />
        </mxCell>
        <mxCell id="DY3PiAdyVnmW26J06P4--130" value="" style="rounded=0;whiteSpace=wrap;html=1;" vertex="1" parent="DY3PiAdyVnmW26J06P4--129">
          <mxGeometry width="96" height="140" as="geometry" />
        </mxCell>
        <mxCell id="DY3PiAdyVnmW26J06P4--131" value="" style="triangle;whiteSpace=wrap;html=1;rotation=0;" vertex="1" parent="DY3PiAdyVnmW26J06P4--129">
          <mxGeometry y="100" width="20" height="30" as="geometry" />
        </mxCell>
        <mxCell id="DY3PiAdyVnmW26J06P4--132" value="&lt;font style=&quot;font-size: 21px;&quot;&gt;D&lt;/font&gt;" style="text;html=1;strokeColor=none;fillColor=none;align=center;verticalAlign=middle;whiteSpace=wrap;rounded=0;" vertex="1" parent="DY3PiAdyVnmW26J06P4--129">
          <mxGeometry y="10" width="20" height="30" as="geometry" />
        </mxCell>
        <mxCell id="DY3PiAdyVnmW26J06P4--133" value="&lt;font style=&quot;font-size: 21px;&quot;&gt;Q&lt;/font&gt;" style="text;html=1;strokeColor=none;fillColor=none;align=center;verticalAlign=middle;whiteSpace=wrap;rounded=0;" vertex="1" parent="DY3PiAdyVnmW26J06P4--129">
          <mxGeometry x="76" y="10" width="20" height="30" as="geometry" />
        </mxCell>
        <mxCell id="DY3PiAdyVnmW26J06P4--134" value="&lt;font style=&quot;font-size: 21px;&quot;&gt;RST&lt;/font&gt;" style="text;html=1;strokeColor=none;fillColor=none;align=center;verticalAlign=middle;whiteSpace=wrap;rounded=0;" vertex="1" parent="DY3PiAdyVnmW26J06P4--129">
          <mxGeometry x="33" y="110" width="30" height="30" as="geometry" />
        </mxCell>
        <mxCell id="DY3PiAdyVnmW26J06P4--135" value="" style="group" vertex="1" connectable="0" parent="1">
          <mxGeometry x="1510" y="430" width="96" height="140" as="geometry" />
        </mxCell>
        <mxCell id="DY3PiAdyVnmW26J06P4--136" value="" style="rounded=0;whiteSpace=wrap;html=1;" vertex="1" parent="DY3PiAdyVnmW26J06P4--135">
          <mxGeometry width="96" height="140" as="geometry" />
        </mxCell>
        <mxCell id="DY3PiAdyVnmW26J06P4--137" value="" style="triangle;whiteSpace=wrap;html=1;rotation=0;" vertex="1" parent="DY3PiAdyVnmW26J06P4--135">
          <mxGeometry y="100" width="20" height="30" as="geometry" />
        </mxCell>
        <mxCell id="DY3PiAdyVnmW26J06P4--138" value="&lt;font style=&quot;font-size: 21px;&quot;&gt;D&lt;/font&gt;" style="text;html=1;strokeColor=none;fillColor=none;align=center;verticalAlign=middle;whiteSpace=wrap;rounded=0;" vertex="1" parent="DY3PiAdyVnmW26J06P4--135">
          <mxGeometry y="10" width="20" height="30" as="geometry" />
        </mxCell>
        <mxCell id="DY3PiAdyVnmW26J06P4--139" value="&lt;font style=&quot;font-size: 21px;&quot;&gt;Q&lt;/font&gt;" style="text;html=1;strokeColor=none;fillColor=none;align=center;verticalAlign=middle;whiteSpace=wrap;rounded=0;" vertex="1" parent="DY3PiAdyVnmW26J06P4--135">
          <mxGeometry x="76" y="10" width="20" height="30" as="geometry" />
        </mxCell>
        <mxCell id="DY3PiAdyVnmW26J06P4--140" value="&lt;font style=&quot;font-size: 21px;&quot;&gt;RST&lt;/font&gt;" style="text;html=1;strokeColor=none;fillColor=none;align=center;verticalAlign=middle;whiteSpace=wrap;rounded=0;" vertex="1" parent="DY3PiAdyVnmW26J06P4--135">
          <mxGeometry x="33" y="110" width="30" height="30" as="geometry" />
        </mxCell>
        <mxCell id="DY3PiAdyVnmW26J06P4--141" style="edgeStyle=orthogonalEdgeStyle;rounded=0;orthogonalLoop=1;jettySize=auto;html=1;exitX=0;exitY=0.5;exitDx=0;exitDy=0;entryX=0.5;entryY=1;entryDx=0;entryDy=0;endArrow=none;endFill=0;" edge="1" parent="1" source="DY3PiAdyVnmW26J06P4--102" target="DY3PiAdyVnmW26J06P4--78">
          <mxGeometry relative="1" as="geometry">
            <Array as="points">
              <mxPoint x="295" y="455" />
            </Array>
          </mxGeometry>
        </mxCell>
        <mxCell id="DY3PiAdyVnmW26J06P4--142" style="edgeStyle=orthogonalEdgeStyle;rounded=0;orthogonalLoop=1;jettySize=auto;html=1;exitX=0;exitY=0.5;exitDx=0;exitDy=0;entryX=0.5;entryY=1;entryDx=0;entryDy=0;endArrow=none;endFill=0;" edge="1" parent="1" source="DY3PiAdyVnmW26J06P4--132" target="DY3PiAdyVnmW26J06P4--90">
          <mxGeometry relative="1" as="geometry">
            <Array as="points">
              <mxPoint x="1295" y="455" />
            </Array>
          </mxGeometry>
        </mxCell>
        <mxCell id="DY3PiAdyVnmW26J06P4--143" style="edgeStyle=orthogonalEdgeStyle;rounded=0;orthogonalLoop=1;jettySize=auto;html=1;exitX=0;exitY=0.5;exitDx=0;exitDy=0;endArrow=none;endFill=0;" edge="1" parent="1" source="DY3PiAdyVnmW26J06P4--138" target="DY3PiAdyVnmW26J06P4--92">
          <mxGeometry relative="1" as="geometry">
            <Array as="points">
              <mxPoint x="1495" y="455" />
            </Array>
          </mxGeometry>
        </mxCell>
        <mxCell id="DY3PiAdyVnmW26J06P4--144" style="edgeStyle=orthogonalEdgeStyle;rounded=0;orthogonalLoop=1;jettySize=auto;html=1;exitX=0;exitY=0.5;exitDx=0;exitDy=0;entryX=0.5;entryY=1;entryDx=0;entryDy=0;endArrow=none;endFill=0;" edge="1" parent="1" source="DY3PiAdyVnmW26J06P4--126" target="DY3PiAdyVnmW26J06P4--89">
          <mxGeometry relative="1" as="geometry">
            <Array as="points">
              <mxPoint x="1095" y="455" />
            </Array>
          </mxGeometry>
        </mxCell>
        <mxCell id="DY3PiAdyVnmW26J06P4--145" style="edgeStyle=orthogonalEdgeStyle;rounded=0;orthogonalLoop=1;jettySize=auto;html=1;exitX=0;exitY=0.5;exitDx=0;exitDy=0;entryX=0.5;entryY=1;entryDx=0;entryDy=0;endArrow=none;endFill=0;" edge="1" parent="1" source="DY3PiAdyVnmW26J06P4--120" target="DY3PiAdyVnmW26J06P4--88">
          <mxGeometry relative="1" as="geometry">
            <Array as="points">
              <mxPoint x="895" y="455" />
            </Array>
          </mxGeometry>
        </mxCell>
        <mxCell id="DY3PiAdyVnmW26J06P4--146" style="edgeStyle=orthogonalEdgeStyle;rounded=0;orthogonalLoop=1;jettySize=auto;html=1;exitX=0;exitY=0.5;exitDx=0;exitDy=0;entryX=0.5;entryY=1;entryDx=0;entryDy=0;endArrow=none;endFill=0;" edge="1" parent="1" source="DY3PiAdyVnmW26J06P4--108" target="DY3PiAdyVnmW26J06P4--85">
          <mxGeometry relative="1" as="geometry">
            <Array as="points">
              <mxPoint x="495" y="455" />
            </Array>
          </mxGeometry>
        </mxCell>
        <mxCell id="DY3PiAdyVnmW26J06P4--147" style="edgeStyle=orthogonalEdgeStyle;rounded=0;orthogonalLoop=1;jettySize=auto;html=1;exitX=0;exitY=0.5;exitDx=0;exitDy=0;entryX=0.5;entryY=1;entryDx=0;entryDy=0;endArrow=none;endFill=0;" edge="1" parent="1" source="DY3PiAdyVnmW26J06P4--114" target="DY3PiAdyVnmW26J06P4--87">
          <mxGeometry relative="1" as="geometry">
            <Array as="points">
              <mxPoint x="695" y="455" />
            </Array>
          </mxGeometry>
        </mxCell>
        <mxCell id="DY3PiAdyVnmW26J06P4--149" style="edgeStyle=orthogonalEdgeStyle;rounded=0;orthogonalLoop=1;jettySize=auto;html=1;exitX=0;exitY=0.5;exitDx=0;exitDy=0;entryX=0;entryY=0.5;entryDx=0;entryDy=0;endArrow=none;endFill=0;jumpStyle=sharp;" edge="1" parent="1" source="DY3PiAdyVnmW26J06P4--107" target="DY3PiAdyVnmW26J06P4--10">
          <mxGeometry relative="1" as="geometry">
            <Array as="points">
              <mxPoint x="460" y="545" />
              <mxPoint x="460" y="420" />
              <mxPoint x="330" y="420" />
              <mxPoint x="330" y="175" />
            </Array>
          </mxGeometry>
        </mxCell>
        <mxCell id="DY3PiAdyVnmW26J06P4--150" style="edgeStyle=orthogonalEdgeStyle;rounded=0;orthogonalLoop=1;jettySize=auto;html=1;exitX=0;exitY=0.5;exitDx=0;exitDy=0;entryX=0;entryY=0.5;entryDx=0;entryDy=0;endArrow=none;endFill=0;jumpStyle=sharp;" edge="1" parent="1" source="DY3PiAdyVnmW26J06P4--113" target="DY3PiAdyVnmW26J06P4--16">
          <mxGeometry relative="1" as="geometry">
            <Array as="points">
              <mxPoint x="660" y="545" />
              <mxPoint x="660" y="420" />
              <mxPoint x="530" y="420" />
              <mxPoint x="530" y="175" />
            </Array>
          </mxGeometry>
        </mxCell>
        <mxCell id="DY3PiAdyVnmW26J06P4--151" style="edgeStyle=orthogonalEdgeStyle;rounded=0;orthogonalLoop=1;jettySize=auto;html=1;exitX=0;exitY=0.5;exitDx=0;exitDy=0;entryX=0;entryY=0.5;entryDx=0;entryDy=0;endArrow=none;endFill=0;jumpStyle=sharp;" edge="1" parent="1" source="DY3PiAdyVnmW26J06P4--119" target="DY3PiAdyVnmW26J06P4--22">
          <mxGeometry relative="1" as="geometry">
            <Array as="points">
              <mxPoint x="860" y="545" />
              <mxPoint x="860" y="420" />
              <mxPoint x="730" y="420" />
              <mxPoint x="730" y="175" />
            </Array>
          </mxGeometry>
        </mxCell>
        <mxCell id="DY3PiAdyVnmW26J06P4--152" style="edgeStyle=orthogonalEdgeStyle;rounded=0;orthogonalLoop=1;jettySize=auto;html=1;exitX=0;exitY=0.5;exitDx=0;exitDy=0;entryX=0;entryY=0.5;entryDx=0;entryDy=0;endArrow=none;endFill=0;jumpStyle=sharp;" edge="1" parent="1" source="DY3PiAdyVnmW26J06P4--125" target="DY3PiAdyVnmW26J06P4--28">
          <mxGeometry relative="1" as="geometry">
            <Array as="points">
              <mxPoint x="1060" y="545" />
              <mxPoint x="1060" y="420" />
              <mxPoint x="930" y="420" />
              <mxPoint x="930" y="175" />
            </Array>
          </mxGeometry>
        </mxCell>
        <mxCell id="DY3PiAdyVnmW26J06P4--153" style="edgeStyle=orthogonalEdgeStyle;rounded=0;orthogonalLoop=1;jettySize=auto;html=1;exitX=0;exitY=0.5;exitDx=0;exitDy=0;entryX=0;entryY=0.5;entryDx=0;entryDy=0;endArrow=none;endFill=0;jumpStyle=sharp;" edge="1" parent="1" source="DY3PiAdyVnmW26J06P4--131" target="DY3PiAdyVnmW26J06P4--34">
          <mxGeometry relative="1" as="geometry">
            <Array as="points">
              <mxPoint x="1260" y="545" />
              <mxPoint x="1260" y="420" />
              <mxPoint x="1130" y="420" />
              <mxPoint x="1130" y="175" />
            </Array>
          </mxGeometry>
        </mxCell>
        <mxCell id="DY3PiAdyVnmW26J06P4--154" style="edgeStyle=orthogonalEdgeStyle;rounded=0;orthogonalLoop=1;jettySize=auto;html=1;exitX=0;exitY=0.5;exitDx=0;exitDy=0;entryX=0;entryY=0.5;entryDx=0;entryDy=0;endArrow=none;endFill=0;jumpStyle=sharp;" edge="1" parent="1" source="DY3PiAdyVnmW26J06P4--137" target="DY3PiAdyVnmW26J06P4--40">
          <mxGeometry relative="1" as="geometry">
            <Array as="points">
              <mxPoint x="1460" y="545" />
              <mxPoint x="1460" y="420" />
              <mxPoint x="1330" y="420" />
              <mxPoint x="1330" y="175" />
            </Array>
          </mxGeometry>
        </mxCell>
        <mxCell id="DY3PiAdyVnmW26J06P4--165" value="&lt;font style=&quot;font-size: 30px;&quot;&gt;+&lt;/font&gt;" style="ellipse;whiteSpace=wrap;html=1;aspect=fixed;verticalAlign=bottom;" vertex="1" parent="1">
          <mxGeometry x="240" y="660" width="50" height="50" as="geometry" />
        </mxCell>
        <mxCell id="DY3PiAdyVnmW26J06P4--166" value="&lt;font style=&quot;font-size: 30px;&quot;&gt;+&lt;/font&gt;" style="ellipse;whiteSpace=wrap;html=1;aspect=fixed;verticalAlign=bottom;" vertex="1" parent="1">
          <mxGeometry x="670" y="660" width="50" height="50" as="geometry" />
        </mxCell>
        <mxCell id="DY3PiAdyVnmW26J06P4--167" value="&lt;font style=&quot;font-size: 30px;&quot;&gt;+&lt;/font&gt;" style="ellipse;whiteSpace=wrap;html=1;aspect=fixed;verticalAlign=bottom;" vertex="1" parent="1">
          <mxGeometry x="1070" y="660" width="50" height="50" as="geometry" />
        </mxCell>
        <mxCell id="DY3PiAdyVnmW26J06P4--200" style="edgeStyle=orthogonalEdgeStyle;rounded=0;orthogonalLoop=1;jettySize=auto;html=1;exitX=1;exitY=0;exitDx=0;exitDy=0;entryX=1;entryY=0.5;entryDx=0;entryDy=0;endArrow=none;endFill=0;jumpStyle=sharp;" edge="1" parent="1" source="DY3PiAdyVnmW26J06P4--169" target="DY3PiAdyVnmW26J06P4--139">
          <mxGeometry relative="1" as="geometry">
            <Array as="points">
              <mxPoint x="1513" y="630" />
              <mxPoint x="1626" y="630" />
              <mxPoint x="1626" y="455" />
            </Array>
          </mxGeometry>
        </mxCell>
        <mxCell id="DY3PiAdyVnmW26J06P4--169" value="&lt;font style=&quot;font-size: 30px;&quot;&gt;+&lt;/font&gt;" style="ellipse;whiteSpace=wrap;html=1;aspect=fixed;verticalAlign=bottom;" vertex="1" parent="1">
          <mxGeometry x="1470" y="650" width="50" height="50" as="geometry" />
        </mxCell>
        <mxCell id="DY3PiAdyVnmW26J06P4--179" value="" style="group" vertex="1" connectable="0" parent="1">
          <mxGeometry x="120" y="430" width="96" height="140" as="geometry" />
        </mxCell>
        <mxCell id="DY3PiAdyVnmW26J06P4--180" value="" style="rounded=0;whiteSpace=wrap;html=1;" vertex="1" parent="DY3PiAdyVnmW26J06P4--179">
          <mxGeometry width="96" height="140" as="geometry" />
        </mxCell>
        <mxCell id="DY3PiAdyVnmW26J06P4--181" value="" style="triangle;whiteSpace=wrap;html=1;rotation=0;" vertex="1" parent="DY3PiAdyVnmW26J06P4--179">
          <mxGeometry y="100" width="20" height="30" as="geometry" />
        </mxCell>
        <mxCell id="DY3PiAdyVnmW26J06P4--182" value="&lt;font style=&quot;font-size: 21px;&quot;&gt;D&lt;/font&gt;" style="text;html=1;strokeColor=none;fillColor=none;align=center;verticalAlign=middle;whiteSpace=wrap;rounded=0;" vertex="1" parent="DY3PiAdyVnmW26J06P4--179">
          <mxGeometry y="10" width="20" height="30" as="geometry" />
        </mxCell>
        <mxCell id="DY3PiAdyVnmW26J06P4--183" value="&lt;font style=&quot;font-size: 21px;&quot;&gt;Q&lt;/font&gt;" style="text;html=1;strokeColor=none;fillColor=none;align=center;verticalAlign=middle;whiteSpace=wrap;rounded=0;" vertex="1" parent="DY3PiAdyVnmW26J06P4--179">
          <mxGeometry x="76" y="10" width="20" height="30" as="geometry" />
        </mxCell>
        <mxCell id="DY3PiAdyVnmW26J06P4--184" value="&lt;font style=&quot;font-size: 21px;&quot;&gt;RST&lt;/font&gt;" style="text;html=1;strokeColor=none;fillColor=none;align=center;verticalAlign=middle;whiteSpace=wrap;rounded=0;" vertex="1" parent="DY3PiAdyVnmW26J06P4--179">
          <mxGeometry x="33" y="110" width="30" height="30" as="geometry" />
        </mxCell>
        <mxCell id="DY3PiAdyVnmW26J06P4--188" style="edgeStyle=orthogonalEdgeStyle;rounded=0;orthogonalLoop=1;jettySize=auto;html=1;exitX=0;exitY=0.5;exitDx=0;exitDy=0;entryX=0;entryY=0.5;entryDx=0;entryDy=0;endArrow=none;endFill=0;jumpStyle=sharp;" edge="1" parent="1" source="DY3PiAdyVnmW26J06P4--101" target="DY3PiAdyVnmW26J06P4--2">
          <mxGeometry relative="1" as="geometry">
            <mxPoint x="220" y="320" as="targetPoint" />
            <Array as="points">
              <mxPoint x="260" y="545" />
              <mxPoint x="260" y="420" />
              <mxPoint x="140" y="420" />
              <mxPoint x="140" y="175" />
            </Array>
          </mxGeometry>
        </mxCell>
        <mxCell id="DY3PiAdyVnmW26J06P4--190" style="edgeStyle=orthogonalEdgeStyle;rounded=0;orthogonalLoop=1;jettySize=auto;html=1;exitX=0.5;exitY=1;exitDx=0;exitDy=0;entryX=0;entryY=0.5;entryDx=0;entryDy=0;endArrow=none;endFill=0;" edge="1" parent="1" source="DY3PiAdyVnmW26J06P4--189" target="DY3PiAdyVnmW26J06P4--182">
          <mxGeometry relative="1" as="geometry" />
        </mxCell>
        <mxCell id="DY3PiAdyVnmW26J06P4--189" value="&lt;font style=&quot;font-size: 30px;&quot;&gt;*&lt;/font&gt;" style="ellipse;whiteSpace=wrap;html=1;aspect=fixed;verticalAlign=bottom;" vertex="1" parent="1">
          <mxGeometry x="70" y="360" width="50" height="50" as="geometry" />
        </mxCell>
        <mxCell id="DY3PiAdyVnmW26J06P4--193" style="edgeStyle=orthogonalEdgeStyle;rounded=0;orthogonalLoop=1;jettySize=auto;html=1;exitX=1;exitY=0.5;exitDx=0;exitDy=0;entryX=0;entryY=0;entryDx=0;entryDy=0;endArrow=none;endFill=0;jumpStyle=sharp;" edge="1" parent="1" source="DY3PiAdyVnmW26J06P4--183" target="DY3PiAdyVnmW26J06P4--165">
          <mxGeometry relative="1" as="geometry" />
        </mxCell>
        <mxCell id="DY3PiAdyVnmW26J06P4--194" style="edgeStyle=orthogonalEdgeStyle;rounded=0;orthogonalLoop=1;jettySize=auto;html=1;exitX=1;exitY=0.5;exitDx=0;exitDy=0;entryX=1;entryY=0;entryDx=0;entryDy=0;endArrow=none;endFill=0;jumpStyle=sharp;" edge="1" parent="1" source="DY3PiAdyVnmW26J06P4--103" target="DY3PiAdyVnmW26J06P4--165">
          <mxGeometry relative="1" as="geometry">
            <Array as="points">
              <mxPoint x="426" y="455" />
              <mxPoint x="426" y="620" />
              <mxPoint x="283" y="620" />
            </Array>
          </mxGeometry>
        </mxCell>
        <mxCell id="DY3PiAdyVnmW26J06P4--195" style="edgeStyle=orthogonalEdgeStyle;rounded=0;orthogonalLoop=1;jettySize=auto;html=1;exitX=1;exitY=0.5;exitDx=0;exitDy=0;entryX=0;entryY=0;entryDx=0;entryDy=0;endArrow=none;endFill=0;jumpStyle=sharp;" edge="1" parent="1" source="DY3PiAdyVnmW26J06P4--109" target="DY3PiAdyVnmW26J06P4--166">
          <mxGeometry relative="1" as="geometry">
            <Array as="points">
              <mxPoint x="630" y="455" />
              <mxPoint x="630" y="620" />
              <mxPoint x="677" y="620" />
            </Array>
          </mxGeometry>
        </mxCell>
        <mxCell id="DY3PiAdyVnmW26J06P4--196" style="edgeStyle=orthogonalEdgeStyle;rounded=0;orthogonalLoop=1;jettySize=auto;html=1;exitX=1;exitY=0.5;exitDx=0;exitDy=0;entryX=1;entryY=0;entryDx=0;entryDy=0;endArrow=none;endFill=0;jumpStyle=sharp;" edge="1" parent="1" source="DY3PiAdyVnmW26J06P4--115" target="DY3PiAdyVnmW26J06P4--166">
          <mxGeometry relative="1" as="geometry">
            <Array as="points">
              <mxPoint x="826" y="455" />
              <mxPoint x="826" y="620" />
              <mxPoint x="713" y="620" />
            </Array>
          </mxGeometry>
        </mxCell>
        <mxCell id="DY3PiAdyVnmW26J06P4--197" style="edgeStyle=orthogonalEdgeStyle;rounded=0;orthogonalLoop=1;jettySize=auto;html=1;exitX=1;exitY=0.5;exitDx=0;exitDy=0;entryX=0;entryY=0;entryDx=0;entryDy=0;endArrow=none;endFill=0;jumpStyle=sharp;" edge="1" parent="1" source="DY3PiAdyVnmW26J06P4--121" target="DY3PiAdyVnmW26J06P4--167">
          <mxGeometry relative="1" as="geometry">
            <Array as="points">
              <mxPoint x="1040" y="455" />
              <mxPoint x="1040" y="630" />
              <mxPoint x="1077" y="630" />
            </Array>
          </mxGeometry>
        </mxCell>
        <mxCell id="DY3PiAdyVnmW26J06P4--198" style="edgeStyle=orthogonalEdgeStyle;rounded=0;orthogonalLoop=1;jettySize=auto;html=1;exitX=1;exitY=0.5;exitDx=0;exitDy=0;entryX=1;entryY=0;entryDx=0;entryDy=0;endArrow=none;endFill=0;jumpStyle=sharp;" edge="1" parent="1" source="DY3PiAdyVnmW26J06P4--127" target="DY3PiAdyVnmW26J06P4--167">
          <mxGeometry relative="1" as="geometry">
            <Array as="points">
              <mxPoint x="1226" y="455" />
              <mxPoint x="1226" y="630" />
              <mxPoint x="1113" y="630" />
            </Array>
          </mxGeometry>
        </mxCell>
        <mxCell id="DY3PiAdyVnmW26J06P4--199" style="edgeStyle=orthogonalEdgeStyle;rounded=0;orthogonalLoop=1;jettySize=auto;html=1;exitX=1;exitY=0.5;exitDx=0;exitDy=0;entryX=0;entryY=0;entryDx=0;entryDy=0;endArrow=none;endFill=0;jumpStyle=sharp;" edge="1" parent="1" source="DY3PiAdyVnmW26J06P4--133" target="DY3PiAdyVnmW26J06P4--169">
          <mxGeometry relative="1" as="geometry">
            <Array as="points">
              <mxPoint x="1440" y="455" />
              <mxPoint x="1440" y="630" />
              <mxPoint x="1477" y="630" />
            </Array>
          </mxGeometry>
        </mxCell>
        <mxCell id="DY3PiAdyVnmW26J06P4--201" value="" style="group" vertex="1" connectable="0" parent="1">
          <mxGeometry x="280" y="740" width="96" height="140" as="geometry" />
        </mxCell>
        <mxCell id="DY3PiAdyVnmW26J06P4--202" value="" style="rounded=0;whiteSpace=wrap;html=1;" vertex="1" parent="DY3PiAdyVnmW26J06P4--201">
          <mxGeometry width="96" height="140" as="geometry" />
        </mxCell>
        <mxCell id="DY3PiAdyVnmW26J06P4--203" value="" style="triangle;whiteSpace=wrap;html=1;rotation=0;" vertex="1" parent="DY3PiAdyVnmW26J06P4--201">
          <mxGeometry y="100" width="20" height="30" as="geometry" />
        </mxCell>
        <mxCell id="DY3PiAdyVnmW26J06P4--204" value="&lt;font style=&quot;font-size: 21px;&quot;&gt;D&lt;/font&gt;" style="text;html=1;strokeColor=none;fillColor=none;align=center;verticalAlign=middle;whiteSpace=wrap;rounded=0;" vertex="1" parent="DY3PiAdyVnmW26J06P4--201">
          <mxGeometry y="10" width="20" height="30" as="geometry" />
        </mxCell>
        <mxCell id="DY3PiAdyVnmW26J06P4--205" value="&lt;font style=&quot;font-size: 21px;&quot;&gt;Q&lt;/font&gt;" style="text;html=1;strokeColor=none;fillColor=none;align=center;verticalAlign=middle;whiteSpace=wrap;rounded=0;" vertex="1" parent="DY3PiAdyVnmW26J06P4--201">
          <mxGeometry x="76" y="10" width="20" height="30" as="geometry" />
        </mxCell>
        <mxCell id="DY3PiAdyVnmW26J06P4--206" value="&lt;font style=&quot;font-size: 21px;&quot;&gt;RST&lt;/font&gt;" style="text;html=1;strokeColor=none;fillColor=none;align=center;verticalAlign=middle;whiteSpace=wrap;rounded=0;" vertex="1" parent="DY3PiAdyVnmW26J06P4--201">
          <mxGeometry x="33" y="110" width="30" height="30" as="geometry" />
        </mxCell>
        <mxCell id="DY3PiAdyVnmW26J06P4--207" value="" style="group" vertex="1" connectable="0" parent="1">
          <mxGeometry x="710" y="740" width="96" height="140" as="geometry" />
        </mxCell>
        <mxCell id="DY3PiAdyVnmW26J06P4--208" value="" style="rounded=0;whiteSpace=wrap;html=1;" vertex="1" parent="DY3PiAdyVnmW26J06P4--207">
          <mxGeometry width="96" height="140" as="geometry" />
        </mxCell>
        <mxCell id="DY3PiAdyVnmW26J06P4--209" value="" style="triangle;whiteSpace=wrap;html=1;rotation=0;" vertex="1" parent="DY3PiAdyVnmW26J06P4--207">
          <mxGeometry y="100" width="20" height="30" as="geometry" />
        </mxCell>
        <mxCell id="DY3PiAdyVnmW26J06P4--210" value="&lt;font style=&quot;font-size: 21px;&quot;&gt;D&lt;/font&gt;" style="text;html=1;strokeColor=none;fillColor=none;align=center;verticalAlign=middle;whiteSpace=wrap;rounded=0;" vertex="1" parent="DY3PiAdyVnmW26J06P4--207">
          <mxGeometry y="10" width="20" height="30" as="geometry" />
        </mxCell>
        <mxCell id="DY3PiAdyVnmW26J06P4--211" value="&lt;font style=&quot;font-size: 21px;&quot;&gt;Q&lt;/font&gt;" style="text;html=1;strokeColor=none;fillColor=none;align=center;verticalAlign=middle;whiteSpace=wrap;rounded=0;" vertex="1" parent="DY3PiAdyVnmW26J06P4--207">
          <mxGeometry x="76" y="10" width="20" height="30" as="geometry" />
        </mxCell>
        <mxCell id="DY3PiAdyVnmW26J06P4--212" value="&lt;font style=&quot;font-size: 21px;&quot;&gt;RST&lt;/font&gt;" style="text;html=1;strokeColor=none;fillColor=none;align=center;verticalAlign=middle;whiteSpace=wrap;rounded=0;" vertex="1" parent="DY3PiAdyVnmW26J06P4--207">
          <mxGeometry x="33" y="110" width="30" height="30" as="geometry" />
        </mxCell>
        <mxCell id="DY3PiAdyVnmW26J06P4--213" value="" style="group" vertex="1" connectable="0" parent="1">
          <mxGeometry x="1120" y="740" width="96" height="140" as="geometry" />
        </mxCell>
        <mxCell id="DY3PiAdyVnmW26J06P4--214" value="" style="rounded=0;whiteSpace=wrap;html=1;" vertex="1" parent="DY3PiAdyVnmW26J06P4--213">
          <mxGeometry width="96" height="140" as="geometry" />
        </mxCell>
        <mxCell id="DY3PiAdyVnmW26J06P4--215" value="" style="triangle;whiteSpace=wrap;html=1;rotation=0;" vertex="1" parent="DY3PiAdyVnmW26J06P4--213">
          <mxGeometry y="100" width="20" height="30" as="geometry" />
        </mxCell>
        <mxCell id="DY3PiAdyVnmW26J06P4--216" value="&lt;font style=&quot;font-size: 21px;&quot;&gt;D&lt;/font&gt;" style="text;html=1;strokeColor=none;fillColor=none;align=center;verticalAlign=middle;whiteSpace=wrap;rounded=0;" vertex="1" parent="DY3PiAdyVnmW26J06P4--213">
          <mxGeometry y="10" width="20" height="30" as="geometry" />
        </mxCell>
        <mxCell id="DY3PiAdyVnmW26J06P4--217" value="&lt;font style=&quot;font-size: 21px;&quot;&gt;Q&lt;/font&gt;" style="text;html=1;strokeColor=none;fillColor=none;align=center;verticalAlign=middle;whiteSpace=wrap;rounded=0;" vertex="1" parent="DY3PiAdyVnmW26J06P4--213">
          <mxGeometry x="76" y="10" width="20" height="30" as="geometry" />
        </mxCell>
        <mxCell id="DY3PiAdyVnmW26J06P4--218" value="&lt;font style=&quot;font-size: 21px;&quot;&gt;RST&lt;/font&gt;" style="text;html=1;strokeColor=none;fillColor=none;align=center;verticalAlign=middle;whiteSpace=wrap;rounded=0;" vertex="1" parent="DY3PiAdyVnmW26J06P4--213">
          <mxGeometry x="33" y="110" width="30" height="30" as="geometry" />
        </mxCell>
        <mxCell id="DY3PiAdyVnmW26J06P4--219" value="" style="group" vertex="1" connectable="0" parent="1">
          <mxGeometry x="1520" y="740" width="96" height="140" as="geometry" />
        </mxCell>
        <mxCell id="DY3PiAdyVnmW26J06P4--220" value="" style="rounded=0;whiteSpace=wrap;html=1;" vertex="1" parent="DY3PiAdyVnmW26J06P4--219">
          <mxGeometry width="96" height="140" as="geometry" />
        </mxCell>
        <mxCell id="DY3PiAdyVnmW26J06P4--221" value="" style="triangle;whiteSpace=wrap;html=1;rotation=0;" vertex="1" parent="DY3PiAdyVnmW26J06P4--219">
          <mxGeometry y="100" width="20" height="30" as="geometry" />
        </mxCell>
        <mxCell id="DY3PiAdyVnmW26J06P4--222" value="&lt;font style=&quot;font-size: 21px;&quot;&gt;D&lt;/font&gt;" style="text;html=1;strokeColor=none;fillColor=none;align=center;verticalAlign=middle;whiteSpace=wrap;rounded=0;" vertex="1" parent="DY3PiAdyVnmW26J06P4--219">
          <mxGeometry y="10" width="20" height="30" as="geometry" />
        </mxCell>
        <mxCell id="DY3PiAdyVnmW26J06P4--223" value="&lt;font style=&quot;font-size: 21px;&quot;&gt;Q&lt;/font&gt;" style="text;html=1;strokeColor=none;fillColor=none;align=center;verticalAlign=middle;whiteSpace=wrap;rounded=0;" vertex="1" parent="DY3PiAdyVnmW26J06P4--219">
          <mxGeometry x="76" y="10" width="20" height="30" as="geometry" />
        </mxCell>
        <mxCell id="DY3PiAdyVnmW26J06P4--224" value="&lt;font style=&quot;font-size: 21px;&quot;&gt;RST&lt;/font&gt;" style="text;html=1;strokeColor=none;fillColor=none;align=center;verticalAlign=middle;whiteSpace=wrap;rounded=0;" vertex="1" parent="DY3PiAdyVnmW26J06P4--219">
          <mxGeometry x="33" y="110" width="30" height="30" as="geometry" />
        </mxCell>
        <mxCell id="DY3PiAdyVnmW26J06P4--225" style="edgeStyle=orthogonalEdgeStyle;rounded=0;orthogonalLoop=1;jettySize=auto;html=1;exitX=0;exitY=0.5;exitDx=0;exitDy=0;entryX=0.5;entryY=1;entryDx=0;entryDy=0;endArrow=none;endFill=0;" edge="1" parent="1" source="DY3PiAdyVnmW26J06P4--204" target="DY3PiAdyVnmW26J06P4--165">
          <mxGeometry relative="1" as="geometry">
            <Array as="points">
              <mxPoint x="265" y="765" />
            </Array>
          </mxGeometry>
        </mxCell>
        <mxCell id="DY3PiAdyVnmW26J06P4--226" style="edgeStyle=orthogonalEdgeStyle;rounded=0;orthogonalLoop=1;jettySize=auto;html=1;exitX=0;exitY=0.5;exitDx=0;exitDy=0;entryX=0.5;entryY=1;entryDx=0;entryDy=0;endArrow=none;endFill=0;" edge="1" parent="1" source="DY3PiAdyVnmW26J06P4--210" target="DY3PiAdyVnmW26J06P4--166">
          <mxGeometry relative="1" as="geometry">
            <Array as="points">
              <mxPoint x="695" y="765" />
            </Array>
          </mxGeometry>
        </mxCell>
        <mxCell id="DY3PiAdyVnmW26J06P4--227" style="edgeStyle=orthogonalEdgeStyle;rounded=0;orthogonalLoop=1;jettySize=auto;html=1;exitX=0;exitY=0.5;exitDx=0;exitDy=0;entryX=0.5;entryY=1;entryDx=0;entryDy=0;endArrow=none;endFill=0;" edge="1" parent="1" source="DY3PiAdyVnmW26J06P4--216" target="DY3PiAdyVnmW26J06P4--167">
          <mxGeometry relative="1" as="geometry" />
        </mxCell>
        <mxCell id="DY3PiAdyVnmW26J06P4--228" style="edgeStyle=orthogonalEdgeStyle;rounded=0;orthogonalLoop=1;jettySize=auto;html=1;exitX=0;exitY=0.5;exitDx=0;exitDy=0;entryX=0.5;entryY=1;entryDx=0;entryDy=0;endArrow=none;endFill=0;" edge="1" parent="1" source="DY3PiAdyVnmW26J06P4--222" target="DY3PiAdyVnmW26J06P4--169">
          <mxGeometry relative="1" as="geometry" />
        </mxCell>
        <mxCell id="DY3PiAdyVnmW26J06P4--244" style="edgeStyle=orthogonalEdgeStyle;rounded=0;orthogonalLoop=1;jettySize=auto;html=1;exitX=1;exitY=0;exitDx=0;exitDy=0;entryX=1;entryY=0.5;entryDx=0;entryDy=0;endArrow=none;endFill=0;" edge="1" parent="1" source="DY3PiAdyVnmW26J06P4--229" target="DY3PiAdyVnmW26J06P4--211">
          <mxGeometry relative="1" as="geometry">
            <Array as="points">
              <mxPoint x="523" y="930" />
              <mxPoint x="826" y="930" />
              <mxPoint x="826" y="765" />
            </Array>
          </mxGeometry>
        </mxCell>
        <mxCell id="DY3PiAdyVnmW26J06P4--229" value="&lt;font style=&quot;font-size: 30px;&quot;&gt;+&lt;/font&gt;" style="ellipse;whiteSpace=wrap;html=1;aspect=fixed;verticalAlign=bottom;" vertex="1" parent="1">
          <mxGeometry x="480" y="980" width="50" height="50" as="geometry" />
        </mxCell>
        <mxCell id="DY3PiAdyVnmW26J06P4--230" value="&lt;font style=&quot;font-size: 30px;&quot;&gt;+&lt;/font&gt;" style="ellipse;whiteSpace=wrap;html=1;aspect=fixed;verticalAlign=bottom;" vertex="1" parent="1">
          <mxGeometry x="1356" y="980" width="50" height="50" as="geometry" />
        </mxCell>
        <mxCell id="DY3PiAdyVnmW26J06P4--232" style="edgeStyle=orthogonalEdgeStyle;rounded=0;orthogonalLoop=1;jettySize=auto;html=1;exitX=1;exitY=0.5;exitDx=0;exitDy=0;entryX=0;entryY=0;entryDx=0;entryDy=0;endArrow=none;endFill=0;" edge="1" parent="1" source="DY3PiAdyVnmW26J06P4--217" target="DY3PiAdyVnmW26J06P4--230">
          <mxGeometry relative="1" as="geometry" />
        </mxCell>
        <mxCell id="DY3PiAdyVnmW26J06P4--233" style="edgeStyle=orthogonalEdgeStyle;rounded=0;orthogonalLoop=1;jettySize=auto;html=1;exitX=1;exitY=0.5;exitDx=0;exitDy=0;entryX=1;entryY=0;entryDx=0;entryDy=0;endArrow=none;endFill=0;" edge="1" parent="1" source="DY3PiAdyVnmW26J06P4--223" target="DY3PiAdyVnmW26J06P4--230">
          <mxGeometry relative="1" as="geometry">
            <Array as="points">
              <mxPoint x="1636" y="765" />
              <mxPoint x="1636" y="930" />
              <mxPoint x="1399" y="930" />
            </Array>
          </mxGeometry>
        </mxCell>
        <mxCell id="DY3PiAdyVnmW26J06P4--234" style="edgeStyle=orthogonalEdgeStyle;rounded=0;orthogonalLoop=1;jettySize=auto;html=1;exitX=0.5;exitY=1;exitDx=0;exitDy=0;entryX=0.5;entryY=1;entryDx=0;entryDy=0;endArrow=none;endFill=0;jumpStyle=sharp;" edge="1" parent="1" source="DY3PiAdyVnmW26J06P4--224" target="DY3PiAdyVnmW26J06P4--134">
          <mxGeometry relative="1" as="geometry">
            <Array as="points">
              <mxPoint x="1568" y="900" />
              <mxPoint x="1400" y="900" />
              <mxPoint x="1400" y="660" />
              <mxPoint x="1358" y="660" />
            </Array>
          </mxGeometry>
        </mxCell>
        <mxCell id="DY3PiAdyVnmW26J06P4--235" style="edgeStyle=orthogonalEdgeStyle;rounded=0;orthogonalLoop=1;jettySize=auto;html=1;exitX=0.5;exitY=1;exitDx=0;exitDy=0;entryX=0.5;entryY=1;entryDx=0;entryDy=0;endArrow=none;endFill=0;jumpStyle=sharp;" edge="1" parent="1" source="DY3PiAdyVnmW26J06P4--218" target="DY3PiAdyVnmW26J06P4--122">
          <mxGeometry relative="1" as="geometry" />
        </mxCell>
        <mxCell id="DY3PiAdyVnmW26J06P4--237" style="edgeStyle=orthogonalEdgeStyle;rounded=0;orthogonalLoop=1;jettySize=auto;html=1;exitX=0.5;exitY=1;exitDx=0;exitDy=0;entryX=0.5;entryY=1;entryDx=0;entryDy=0;endArrow=none;endFill=0;" edge="1" parent="1" source="DY3PiAdyVnmW26J06P4--212" target="DY3PiAdyVnmW26J06P4--110">
          <mxGeometry relative="1" as="geometry" />
        </mxCell>
        <mxCell id="DY3PiAdyVnmW26J06P4--238" style="edgeStyle=orthogonalEdgeStyle;rounded=0;orthogonalLoop=1;jettySize=auto;html=1;exitX=0.5;exitY=1;exitDx=0;exitDy=0;entryX=0.5;entryY=1;entryDx=0;entryDy=0;endArrow=none;endFill=0;jumpStyle=sharp;" edge="1" parent="1" source="DY3PiAdyVnmW26J06P4--206" target="DY3PiAdyVnmW26J06P4--184">
          <mxGeometry relative="1" as="geometry" />
        </mxCell>
        <mxCell id="DY3PiAdyVnmW26J06P4--239" style="edgeStyle=orthogonalEdgeStyle;rounded=0;orthogonalLoop=1;jettySize=auto;html=1;exitX=0;exitY=0.5;exitDx=0;exitDy=0;entryX=0;entryY=0.5;entryDx=0;entryDy=0;endArrow=none;endFill=0;jumpStyle=sharp;" edge="1" parent="1" source="DY3PiAdyVnmW26J06P4--221" target="DY3PiAdyVnmW26J06P4--131">
          <mxGeometry relative="1" as="geometry">
            <Array as="points">
              <mxPoint x="1420" y="855" />
              <mxPoint x="1420" y="730" />
              <mxPoint x="1260" y="730" />
              <mxPoint x="1260" y="545" />
            </Array>
          </mxGeometry>
        </mxCell>
        <mxCell id="DY3PiAdyVnmW26J06P4--240" style="edgeStyle=orthogonalEdgeStyle;rounded=0;orthogonalLoop=1;jettySize=auto;html=1;exitX=0;exitY=0.5;exitDx=0;exitDy=0;entryX=0;entryY=0.5;entryDx=0;entryDy=0;endArrow=none;endFill=0;jumpStyle=sharp;" edge="1" parent="1" source="DY3PiAdyVnmW26J06P4--215" target="DY3PiAdyVnmW26J06P4--119">
          <mxGeometry relative="1" as="geometry">
            <Array as="points">
              <mxPoint x="860" y="855" />
              <mxPoint x="860" y="545" />
            </Array>
          </mxGeometry>
        </mxCell>
        <mxCell id="DY3PiAdyVnmW26J06P4--241" style="edgeStyle=orthogonalEdgeStyle;rounded=0;orthogonalLoop=1;jettySize=auto;html=1;exitX=0;exitY=0.5;exitDx=0;exitDy=0;entryX=0;entryY=0.5;entryDx=0;entryDy=0;endArrow=none;endFill=0;jumpStyle=sharp;" edge="1" parent="1" source="DY3PiAdyVnmW26J06P4--209" target="DY3PiAdyVnmW26J06P4--107">
          <mxGeometry relative="1" as="geometry">
            <Array as="points">
              <mxPoint x="460" y="855" />
              <mxPoint x="460" y="545" />
            </Array>
          </mxGeometry>
        </mxCell>
        <mxCell id="DY3PiAdyVnmW26J06P4--242" style="edgeStyle=orthogonalEdgeStyle;rounded=0;orthogonalLoop=1;jettySize=auto;html=1;exitX=0;exitY=0.5;exitDx=0;exitDy=0;entryX=0;entryY=0.5;entryDx=0;entryDy=0;endArrow=none;endFill=0;jumpStyle=sharp;" edge="1" parent="1" source="DY3PiAdyVnmW26J06P4--203" target="DY3PiAdyVnmW26J06P4--181">
          <mxGeometry relative="1" as="geometry" />
        </mxCell>
        <mxCell id="DY3PiAdyVnmW26J06P4--243" style="edgeStyle=orthogonalEdgeStyle;rounded=0;orthogonalLoop=1;jettySize=auto;html=1;exitX=1;exitY=0.5;exitDx=0;exitDy=0;entryX=0;entryY=0;entryDx=0;entryDy=0;endArrow=none;endFill=0;" edge="1" parent="1" source="DY3PiAdyVnmW26J06P4--205" target="DY3PiAdyVnmW26J06P4--229">
          <mxGeometry relative="1" as="geometry">
            <Array as="points">
              <mxPoint x="430" y="765" />
              <mxPoint x="430" y="930" />
              <mxPoint x="487" y="930" />
            </Array>
          </mxGeometry>
        </mxCell>
        <mxCell id="DY3PiAdyVnmW26J06P4--245" value="" style="group" vertex="1" connectable="0" parent="1">
          <mxGeometry x="520" y="1080" width="96" height="140" as="geometry" />
        </mxCell>
        <mxCell id="DY3PiAdyVnmW26J06P4--246" value="" style="rounded=0;whiteSpace=wrap;html=1;" vertex="1" parent="DY3PiAdyVnmW26J06P4--245">
          <mxGeometry width="96" height="140" as="geometry" />
        </mxCell>
        <mxCell id="DY3PiAdyVnmW26J06P4--247" value="" style="triangle;whiteSpace=wrap;html=1;rotation=0;" vertex="1" parent="DY3PiAdyVnmW26J06P4--245">
          <mxGeometry y="100" width="20" height="30" as="geometry" />
        </mxCell>
        <mxCell id="DY3PiAdyVnmW26J06P4--248" value="&lt;font style=&quot;font-size: 21px;&quot;&gt;D&lt;/font&gt;" style="text;html=1;strokeColor=none;fillColor=none;align=center;verticalAlign=middle;whiteSpace=wrap;rounded=0;" vertex="1" parent="DY3PiAdyVnmW26J06P4--245">
          <mxGeometry y="10" width="20" height="30" as="geometry" />
        </mxCell>
        <mxCell id="DY3PiAdyVnmW26J06P4--249" value="&lt;font style=&quot;font-size: 21px;&quot;&gt;Q&lt;/font&gt;" style="text;html=1;strokeColor=none;fillColor=none;align=center;verticalAlign=middle;whiteSpace=wrap;rounded=0;" vertex="1" parent="DY3PiAdyVnmW26J06P4--245">
          <mxGeometry x="76" y="10" width="20" height="30" as="geometry" />
        </mxCell>
        <mxCell id="DY3PiAdyVnmW26J06P4--250" value="&lt;font style=&quot;font-size: 21px;&quot;&gt;RST&lt;/font&gt;" style="text;html=1;strokeColor=none;fillColor=none;align=center;verticalAlign=middle;whiteSpace=wrap;rounded=0;" vertex="1" parent="DY3PiAdyVnmW26J06P4--245">
          <mxGeometry x="33" y="110" width="30" height="30" as="geometry" />
        </mxCell>
        <mxCell id="DY3PiAdyVnmW26J06P4--251" value="" style="group" vertex="1" connectable="0" parent="1">
          <mxGeometry x="1406" y="1080" width="96" height="140" as="geometry" />
        </mxCell>
        <mxCell id="DY3PiAdyVnmW26J06P4--252" value="" style="rounded=0;whiteSpace=wrap;html=1;" vertex="1" parent="DY3PiAdyVnmW26J06P4--251">
          <mxGeometry width="96" height="140" as="geometry" />
        </mxCell>
        <mxCell id="DY3PiAdyVnmW26J06P4--253" value="" style="triangle;whiteSpace=wrap;html=1;rotation=0;" vertex="1" parent="DY3PiAdyVnmW26J06P4--251">
          <mxGeometry y="100" width="20" height="30" as="geometry" />
        </mxCell>
        <mxCell id="DY3PiAdyVnmW26J06P4--254" value="&lt;font style=&quot;font-size: 21px;&quot;&gt;D&lt;/font&gt;" style="text;html=1;strokeColor=none;fillColor=none;align=center;verticalAlign=middle;whiteSpace=wrap;rounded=0;" vertex="1" parent="DY3PiAdyVnmW26J06P4--251">
          <mxGeometry y="10" width="20" height="30" as="geometry" />
        </mxCell>
        <mxCell id="DY3PiAdyVnmW26J06P4--255" value="&lt;font style=&quot;font-size: 21px;&quot;&gt;Q&lt;/font&gt;" style="text;html=1;strokeColor=none;fillColor=none;align=center;verticalAlign=middle;whiteSpace=wrap;rounded=0;" vertex="1" parent="DY3PiAdyVnmW26J06P4--251">
          <mxGeometry x="76" y="10" width="20" height="30" as="geometry" />
        </mxCell>
        <mxCell id="DY3PiAdyVnmW26J06P4--256" value="&lt;font style=&quot;font-size: 21px;&quot;&gt;RST&lt;/font&gt;" style="text;html=1;strokeColor=none;fillColor=none;align=center;verticalAlign=middle;whiteSpace=wrap;rounded=0;" vertex="1" parent="DY3PiAdyVnmW26J06P4--251">
          <mxGeometry x="33" y="110" width="30" height="30" as="geometry" />
        </mxCell>
        <mxCell id="DY3PiAdyVnmW26J06P4--260" style="edgeStyle=orthogonalEdgeStyle;rounded=0;orthogonalLoop=1;jettySize=auto;html=1;exitX=1;exitY=0;exitDx=0;exitDy=0;entryX=1;entryY=0.5;entryDx=0;entryDy=0;endArrow=none;endFill=0;" edge="1" parent="1" source="DY3PiAdyVnmW26J06P4--257" target="DY3PiAdyVnmW26J06P4--255">
          <mxGeometry relative="1" as="geometry">
            <Array as="points">
              <mxPoint x="1013" y="1280" />
              <mxPoint x="1522" y="1280" />
              <mxPoint x="1522" y="1105" />
            </Array>
          </mxGeometry>
        </mxCell>
        <mxCell id="DY3PiAdyVnmW26J06P4--257" value="&lt;font style=&quot;font-size: 30px;&quot;&gt;+&lt;/font&gt;" style="ellipse;whiteSpace=wrap;html=1;aspect=fixed;verticalAlign=bottom;" vertex="1" parent="1">
          <mxGeometry x="970" y="1300" width="50" height="50" as="geometry" />
        </mxCell>
        <mxCell id="DY3PiAdyVnmW26J06P4--258" style="edgeStyle=orthogonalEdgeStyle;rounded=0;orthogonalLoop=1;jettySize=auto;html=1;exitX=0;exitY=0.5;exitDx=0;exitDy=0;entryX=0.5;entryY=1;entryDx=0;entryDy=0;endArrow=none;endFill=0;" edge="1" parent="1" source="DY3PiAdyVnmW26J06P4--248" target="DY3PiAdyVnmW26J06P4--229">
          <mxGeometry relative="1" as="geometry">
            <Array as="points">
              <mxPoint x="505" y="1105" />
            </Array>
          </mxGeometry>
        </mxCell>
        <mxCell id="DY3PiAdyVnmW26J06P4--259" style="edgeStyle=orthogonalEdgeStyle;rounded=0;orthogonalLoop=1;jettySize=auto;html=1;exitX=1;exitY=0.5;exitDx=0;exitDy=0;entryX=0;entryY=0;entryDx=0;entryDy=0;endArrow=none;endFill=0;" edge="1" parent="1" source="DY3PiAdyVnmW26J06P4--249" target="DY3PiAdyVnmW26J06P4--257">
          <mxGeometry relative="1" as="geometry" />
        </mxCell>
        <mxCell id="DY3PiAdyVnmW26J06P4--263" style="edgeStyle=orthogonalEdgeStyle;rounded=0;orthogonalLoop=1;jettySize=auto;html=1;exitX=0.5;exitY=0;exitDx=0;exitDy=0;entryX=0.5;entryY=1;entryDx=0;entryDy=0;endArrow=none;endFill=0;" edge="1" parent="1" source="DY3PiAdyVnmW26J06P4--262" target="DY3PiAdyVnmW26J06P4--257">
          <mxGeometry relative="1" as="geometry" />
        </mxCell>
        <mxCell id="DY3PiAdyVnmW26J06P4--262" value="&lt;p style=&quot;line-height: 120%;&quot;&gt;&lt;br&gt;&lt;/p&gt;&lt;p style=&quot;line-height: 120%;&quot;&gt;&lt;br&gt;&lt;/p&gt;" style="shape=offPageConnector;whiteSpace=wrap;html=1;rotation=-90;" vertex="1" parent="1">
          <mxGeometry x="1502" y="1380" width="30" height="30" as="geometry" />
        </mxCell>
        <mxCell id="DY3PiAdyVnmW26J06P4--264" style="edgeStyle=orthogonalEdgeStyle;rounded=0;orthogonalLoop=1;jettySize=auto;html=1;exitX=0;exitY=0.5;exitDx=0;exitDy=0;entryX=0.5;entryY=1;entryDx=0;entryDy=0;endArrow=none;endFill=0;" edge="1" parent="1" source="DY3PiAdyVnmW26J06P4--254" target="DY3PiAdyVnmW26J06P4--230">
          <mxGeometry relative="1" as="geometry" />
        </mxCell>
        <mxCell id="DY3PiAdyVnmW26J06P4--265" style="edgeStyle=orthogonalEdgeStyle;rounded=0;orthogonalLoop=1;jettySize=auto;html=1;exitX=0;exitY=0.5;exitDx=0;exitDy=0;entryX=0;entryY=0.5;entryDx=0;entryDy=0;endArrow=none;endFill=0;jumpStyle=sharp;" edge="1" parent="1" source="DY3PiAdyVnmW26J06P4--247" target="DY3PiAdyVnmW26J06P4--203">
          <mxGeometry relative="1" as="geometry">
            <Array as="points">
              <mxPoint x="220" y="1195" />
              <mxPoint x="220" y="855" />
            </Array>
          </mxGeometry>
        </mxCell>
        <mxCell id="DY3PiAdyVnmW26J06P4--266" style="edgeStyle=orthogonalEdgeStyle;rounded=0;orthogonalLoop=1;jettySize=auto;html=1;exitX=0;exitY=0.5;exitDx=0;exitDy=0;entryX=0;entryY=0.5;entryDx=0;entryDy=0;endArrow=none;endFill=0;jumpStyle=sharp;" edge="1" parent="1" source="DY3PiAdyVnmW26J06P4--253" target="DY3PiAdyVnmW26J06P4--215">
          <mxGeometry relative="1" as="geometry">
            <Array as="points">
              <mxPoint x="1050" y="1195" />
              <mxPoint x="1050" y="855" />
            </Array>
          </mxGeometry>
        </mxCell>
        <mxCell id="DY3PiAdyVnmW26J06P4--267" style="edgeStyle=orthogonalEdgeStyle;rounded=0;orthogonalLoop=1;jettySize=auto;html=1;exitX=0.5;exitY=1;exitDx=0;exitDy=0;entryX=0.5;entryY=1;entryDx=0;entryDy=0;endArrow=none;endFill=0;jumpStyle=sharp;" edge="1" parent="1" source="DY3PiAdyVnmW26J06P4--256" target="DY3PiAdyVnmW26J06P4--218">
          <mxGeometry relative="1" as="geometry" />
        </mxCell>
        <mxCell id="DY3PiAdyVnmW26J06P4--269" style="edgeStyle=orthogonalEdgeStyle;rounded=0;orthogonalLoop=1;jettySize=auto;html=1;entryX=0;entryY=0.5;entryDx=0;entryDy=0;endArrow=none;endFill=0;" edge="1" parent="1" source="DY3PiAdyVnmW26J06P4--268" target="DY3PiAdyVnmW26J06P4--189">
          <mxGeometry relative="1" as="geometry" />
        </mxCell>
        <mxCell id="DY3PiAdyVnmW26J06P4--268" value="&lt;font style=&quot;font-size: 23px;&quot;&gt;G_H_0&lt;/font&gt;" style="text;html=1;align=center;verticalAlign=middle;resizable=0;points=[];autosize=1;strokeColor=none;fillColor=none;" vertex="1" parent="1">
          <mxGeometry y="315" width="100" height="40" as="geometry" />
        </mxCell>
        <mxCell id="DY3PiAdyVnmW26J06P4--284" style="edgeStyle=orthogonalEdgeStyle;rounded=0;orthogonalLoop=1;jettySize=auto;html=1;entryX=0;entryY=0.5;entryDx=0;entryDy=0;endArrow=none;endFill=0;" edge="1" parent="1" source="DY3PiAdyVnmW26J06P4--270" target="DY3PiAdyVnmW26J06P4--78">
          <mxGeometry relative="1" as="geometry" />
        </mxCell>
        <mxCell id="DY3PiAdyVnmW26J06P4--270" value="&lt;font style=&quot;font-size: 23px;&quot;&gt;G_H_1&lt;/font&gt;" style="text;html=1;align=center;verticalAlign=middle;resizable=0;points=[];autosize=1;strokeColor=none;fillColor=none;" vertex="1" parent="1">
          <mxGeometry x="170" y="315" width="100" height="40" as="geometry" />
        </mxCell>
        <mxCell id="DY3PiAdyVnmW26J06P4--283" style="edgeStyle=orthogonalEdgeStyle;rounded=0;orthogonalLoop=1;jettySize=auto;html=1;entryX=0;entryY=0.5;entryDx=0;entryDy=0;endArrow=none;endFill=0;" edge="1" parent="1" source="DY3PiAdyVnmW26J06P4--271" target="DY3PiAdyVnmW26J06P4--85">
          <mxGeometry relative="1" as="geometry" />
        </mxCell>
        <mxCell id="DY3PiAdyVnmW26J06P4--271" value="&lt;font style=&quot;font-size: 23px;&quot;&gt;G_H_2&lt;br&gt;&lt;/font&gt;" style="text;html=1;align=center;verticalAlign=middle;resizable=0;points=[];autosize=1;strokeColor=none;fillColor=none;" vertex="1" parent="1">
          <mxGeometry x="370" y="315" width="100" height="40" as="geometry" />
        </mxCell>
        <mxCell id="DY3PiAdyVnmW26J06P4--282" style="edgeStyle=orthogonalEdgeStyle;rounded=0;orthogonalLoop=1;jettySize=auto;html=1;entryX=0;entryY=0.5;entryDx=0;entryDy=0;endArrow=none;endFill=0;" edge="1" parent="1" source="DY3PiAdyVnmW26J06P4--272" target="DY3PiAdyVnmW26J06P4--87">
          <mxGeometry relative="1" as="geometry" />
        </mxCell>
        <mxCell id="DY3PiAdyVnmW26J06P4--272" value="&lt;font style=&quot;font-size: 23px;&quot;&gt;G_H_3&lt;br&gt;&lt;/font&gt;" style="text;html=1;align=center;verticalAlign=middle;resizable=0;points=[];autosize=1;strokeColor=none;fillColor=none;" vertex="1" parent="1">
          <mxGeometry x="570" y="315" width="100" height="40" as="geometry" />
        </mxCell>
        <mxCell id="DY3PiAdyVnmW26J06P4--281" style="edgeStyle=orthogonalEdgeStyle;rounded=0;orthogonalLoop=1;jettySize=auto;html=1;entryX=0;entryY=0.5;entryDx=0;entryDy=0;endArrow=none;endFill=0;" edge="1" parent="1" source="DY3PiAdyVnmW26J06P4--273" target="DY3PiAdyVnmW26J06P4--88">
          <mxGeometry relative="1" as="geometry" />
        </mxCell>
        <mxCell id="DY3PiAdyVnmW26J06P4--273" value="&lt;font style=&quot;font-size: 23px;&quot;&gt;G_H_4&lt;/font&gt;" style="text;html=1;align=center;verticalAlign=middle;resizable=0;points=[];autosize=1;strokeColor=none;fillColor=none;" vertex="1" parent="1">
          <mxGeometry x="770" y="315" width="100" height="40" as="geometry" />
        </mxCell>
        <mxCell id="DY3PiAdyVnmW26J06P4--280" style="edgeStyle=orthogonalEdgeStyle;rounded=0;orthogonalLoop=1;jettySize=auto;html=1;entryX=0;entryY=0.5;entryDx=0;entryDy=0;endArrow=none;endFill=0;" edge="1" parent="1" source="DY3PiAdyVnmW26J06P4--274" target="DY3PiAdyVnmW26J06P4--89">
          <mxGeometry relative="1" as="geometry" />
        </mxCell>
        <mxCell id="DY3PiAdyVnmW26J06P4--274" value="&lt;font style=&quot;font-size: 23px;&quot;&gt;G_H_5&lt;/font&gt;" style="text;html=1;align=center;verticalAlign=middle;resizable=0;points=[];autosize=1;strokeColor=none;fillColor=none;" vertex="1" parent="1">
          <mxGeometry x="970" y="315" width="100" height="40" as="geometry" />
        </mxCell>
        <mxCell id="DY3PiAdyVnmW26J06P4--278" style="edgeStyle=orthogonalEdgeStyle;rounded=0;orthogonalLoop=1;jettySize=auto;html=1;entryX=0;entryY=0.5;entryDx=0;entryDy=0;endArrow=none;endFill=0;" edge="1" parent="1" source="DY3PiAdyVnmW26J06P4--275" target="DY3PiAdyVnmW26J06P4--90">
          <mxGeometry relative="1" as="geometry" />
        </mxCell>
        <mxCell id="DY3PiAdyVnmW26J06P4--275" value="&lt;font style=&quot;font-size: 23px;&quot;&gt;G_H_6&lt;/font&gt;" style="text;html=1;align=center;verticalAlign=middle;resizable=0;points=[];autosize=1;strokeColor=none;fillColor=none;" vertex="1" parent="1">
          <mxGeometry x="1170" y="315" width="100" height="40" as="geometry" />
        </mxCell>
        <mxCell id="DY3PiAdyVnmW26J06P4--279" style="edgeStyle=orthogonalEdgeStyle;rounded=0;orthogonalLoop=1;jettySize=auto;html=1;entryX=0;entryY=0.5;entryDx=0;entryDy=0;endArrow=none;endFill=0;" edge="1" parent="1" source="DY3PiAdyVnmW26J06P4--276" target="DY3PiAdyVnmW26J06P4--92">
          <mxGeometry relative="1" as="geometry" />
        </mxCell>
        <mxCell id="DY3PiAdyVnmW26J06P4--276" value="&lt;font style=&quot;font-size: 23px;&quot;&gt;G_H_7&lt;/font&gt;" style="text;html=1;align=center;verticalAlign=middle;resizable=0;points=[];autosize=1;strokeColor=none;fillColor=none;" vertex="1" parent="1">
          <mxGeometry x="1370" y="315" width="100" height="40" as="geometry" />
        </mxCell>
        <mxCell id="DY3PiAdyVnmW26J06P4--285" value="&lt;font style=&quot;font-size: 22px;&quot;&gt;o_sig&lt;/font&gt;" style="text;html=1;align=center;verticalAlign=middle;resizable=0;points=[];autosize=1;strokeColor=none;fillColor=none;" vertex="1" parent="1">
          <mxGeometry x="1527" y="1375" width="80" height="40" as="geometry" />
        </mxCell>
        <mxCell id="DY3PiAdyVnmW26J06P4--299" value="" style="group" vertex="1" connectable="0" parent="1">
          <mxGeometry x="-50" y="60" width="96" height="140" as="geometry" />
        </mxCell>
        <mxCell id="DY3PiAdyVnmW26J06P4--300" value="" style="rounded=0;whiteSpace=wrap;html=1;" vertex="1" parent="DY3PiAdyVnmW26J06P4--299">
          <mxGeometry width="96" height="140" as="geometry" />
        </mxCell>
        <mxCell id="DY3PiAdyVnmW26J06P4--301" value="" style="triangle;whiteSpace=wrap;html=1;rotation=0;" vertex="1" parent="DY3PiAdyVnmW26J06P4--299">
          <mxGeometry y="100" width="20" height="30" as="geometry" />
        </mxCell>
        <mxCell id="DY3PiAdyVnmW26J06P4--302" value="&lt;font style=&quot;font-size: 21px;&quot;&gt;D&lt;/font&gt;" style="text;html=1;strokeColor=none;fillColor=none;align=center;verticalAlign=middle;whiteSpace=wrap;rounded=0;" vertex="1" parent="DY3PiAdyVnmW26J06P4--299">
          <mxGeometry y="10" width="20" height="30" as="geometry" />
        </mxCell>
        <mxCell id="DY3PiAdyVnmW26J06P4--303" value="&lt;font style=&quot;font-size: 21px;&quot;&gt;Q&lt;/font&gt;" style="text;html=1;strokeColor=none;fillColor=none;align=center;verticalAlign=middle;whiteSpace=wrap;rounded=0;" vertex="1" parent="DY3PiAdyVnmW26J06P4--299">
          <mxGeometry x="76" y="10" width="20" height="30" as="geometry" />
        </mxCell>
        <mxCell id="DY3PiAdyVnmW26J06P4--304" value="&lt;font style=&quot;font-size: 21px;&quot;&gt;RST&lt;/font&gt;" style="text;html=1;strokeColor=none;fillColor=none;align=center;verticalAlign=middle;whiteSpace=wrap;rounded=0;" vertex="1" parent="DY3PiAdyVnmW26J06P4--299">
          <mxGeometry x="33" y="110" width="30" height="30" as="geometry" />
        </mxCell>
        <mxCell id="DY3PiAdyVnmW26J06P4--307" style="edgeStyle=orthogonalEdgeStyle;rounded=0;orthogonalLoop=1;jettySize=auto;html=1;exitX=1;exitY=0.5;exitDx=0;exitDy=0;entryX=0;entryY=0.5;entryDx=0;entryDy=0;endArrow=none;endFill=0;" edge="1" parent="1" source="DY3PiAdyVnmW26J06P4--303" target="DY3PiAdyVnmW26J06P4--3">
          <mxGeometry relative="1" as="geometry" />
        </mxCell>
        <mxCell id="DY3PiAdyVnmW26J06P4--308" style="edgeStyle=orthogonalEdgeStyle;rounded=0;orthogonalLoop=1;jettySize=auto;html=1;exitX=1;exitY=0.5;exitDx=0;exitDy=0;entryX=0.5;entryY=0;entryDx=0;entryDy=0;" edge="1" parent="1" source="DY3PiAdyVnmW26J06P4--303" target="DY3PiAdyVnmW26J06P4--189">
          <mxGeometry relative="1" as="geometry" />
        </mxCell>
        <mxCell id="DY3PiAdyVnmW26J06P4--309" style="edgeStyle=orthogonalEdgeStyle;rounded=0;orthogonalLoop=1;jettySize=auto;html=1;exitX=0;exitY=0.5;exitDx=0;exitDy=0;entryX=0.5;entryY=1;entryDx=0;entryDy=0;endArrow=none;endFill=0;" edge="1" parent="1" source="DY3PiAdyVnmW26J06P4--301" target="DY3PiAdyVnmW26J06P4--45">
          <mxGeometry relative="1" as="geometry" />
        </mxCell>
        <mxCell id="DY3PiAdyVnmW26J06P4--316" style="edgeStyle=orthogonalEdgeStyle;rounded=0;orthogonalLoop=1;jettySize=auto;html=1;exitX=0.5;exitY=1;exitDx=0;exitDy=0;entryX=0.5;entryY=1;entryDx=0;entryDy=0;endArrow=none;endFill=0;" edge="1" parent="1" source="DY3PiAdyVnmW26J06P4--19" target="DY3PiAdyVnmW26J06P4--44">
          <mxGeometry relative="1" as="geometry" />
        </mxCell>
        <mxCell id="DY3PiAdyVnmW26J06P4--318" style="edgeStyle=orthogonalEdgeStyle;rounded=0;orthogonalLoop=1;jettySize=auto;html=1;exitX=0.5;exitY=1;exitDx=0;exitDy=0;entryX=0.5;entryY=1;entryDx=0;entryDy=0;endArrow=none;endFill=0;" edge="1" parent="1" source="DY3PiAdyVnmW26J06P4--25" target="DY3PiAdyVnmW26J06P4--44">
          <mxGeometry relative="1" as="geometry" />
        </mxCell>
        <mxCell id="DY3PiAdyVnmW26J06P4--319" style="edgeStyle=orthogonalEdgeStyle;rounded=0;orthogonalLoop=1;jettySize=auto;html=1;exitX=0.5;exitY=1;exitDx=0;exitDy=0;entryX=0.5;entryY=1;entryDx=0;entryDy=0;endArrow=none;endFill=0;" edge="1" parent="1" source="DY3PiAdyVnmW26J06P4--31" target="DY3PiAdyVnmW26J06P4--44">
          <mxGeometry relative="1" as="geometry" />
        </mxCell>
        <mxCell id="DY3PiAdyVnmW26J06P4--322" style="edgeStyle=orthogonalEdgeStyle;rounded=0;orthogonalLoop=1;jettySize=auto;html=1;exitX=0.5;exitY=1;exitDx=0;exitDy=0;entryX=0.5;entryY=1;entryDx=0;entryDy=0;endArrow=none;endFill=0;" edge="1" parent="1" source="DY3PiAdyVnmW26J06P4--37" target="DY3PiAdyVnmW26J06P4--44">
          <mxGeometry relative="1" as="geometry" />
        </mxCell>
        <mxCell id="DY3PiAdyVnmW26J06P4--325" style="edgeStyle=orthogonalEdgeStyle;rounded=0;orthogonalLoop=1;jettySize=auto;html=1;exitX=0.5;exitY=1;exitDx=0;exitDy=0;entryX=0.5;entryY=1;entryDx=0;entryDy=0;endArrow=none;endFill=0;" edge="1" parent="1" source="DY3PiAdyVnmW26J06P4--43" target="DY3PiAdyVnmW26J06P4--44">
          <mxGeometry relative="1" as="geometry" />
        </mxCell>
        <mxCell id="DY3PiAdyVnmW26J06P4--327" style="edgeStyle=orthogonalEdgeStyle;rounded=0;orthogonalLoop=1;jettySize=auto;html=1;exitX=0.5;exitY=1;exitDx=0;exitDy=0;entryX=0.5;entryY=1;entryDx=0;entryDy=0;endArrow=none;endFill=0;" edge="1" parent="1" source="DY3PiAdyVnmW26J06P4--184" target="DY3PiAdyVnmW26J06P4--44">
          <mxGeometry relative="1" as="geometry" />
        </mxCell>
        <mxCell id="DY3PiAdyVnmW26J06P4--328" style="edgeStyle=orthogonalEdgeStyle;rounded=0;orthogonalLoop=1;jettySize=auto;html=1;exitX=0;exitY=0.5;exitDx=0;exitDy=0;entryX=0;entryY=0.5;entryDx=0;entryDy=0;endArrow=none;endFill=0;" edge="1" parent="1" source="DY3PiAdyVnmW26J06P4--2" target="DY3PiAdyVnmW26J06P4--301">
          <mxGeometry relative="1" as="geometry">
            <Array as="points">
              <mxPoint x="140" y="175" />
              <mxPoint x="140" y="30" />
              <mxPoint x="-70" y="30" />
              <mxPoint x="-70" y="175" />
            </Array>
          </mxGeometry>
        </mxCell>
        <mxCell id="DY3PiAdyVnmW26J06P4--330" style="edgeStyle=orthogonalEdgeStyle;rounded=0;orthogonalLoop=1;jettySize=auto;html=1;exitX=0.5;exitY=1;exitDx=0;exitDy=0;entryX=0.5;entryY=1;entryDx=0;entryDy=0;endArrow=none;endFill=0;" edge="1" parent="1" source="DY3PiAdyVnmW26J06P4--104" target="DY3PiAdyVnmW26J06P4--184">
          <mxGeometry relative="1" as="geometry" />
        </mxCell>
        <mxCell id="DY3PiAdyVnmW26J06P4--331" style="edgeStyle=orthogonalEdgeStyle;rounded=0;orthogonalLoop=1;jettySize=auto;html=1;exitX=0.5;exitY=1;exitDx=0;exitDy=0;entryX=0.5;entryY=1;entryDx=0;entryDy=0;endArrow=none;endFill=0;" edge="1" parent="1" source="DY3PiAdyVnmW26J06P4--110" target="DY3PiAdyVnmW26J06P4--104">
          <mxGeometry relative="1" as="geometry" />
        </mxCell>
        <mxCell id="DY3PiAdyVnmW26J06P4--332" style="edgeStyle=orthogonalEdgeStyle;rounded=0;orthogonalLoop=1;jettySize=auto;html=1;exitX=0.5;exitY=1;exitDx=0;exitDy=0;entryX=0.5;entryY=1;entryDx=0;entryDy=0;" edge="1" parent="1" source="DY3PiAdyVnmW26J06P4--116" target="DY3PiAdyVnmW26J06P4--110">
          <mxGeometry relative="1" as="geometry" />
        </mxCell>
        <mxCell id="DY3PiAdyVnmW26J06P4--333" style="edgeStyle=orthogonalEdgeStyle;rounded=0;orthogonalLoop=1;jettySize=auto;html=1;exitX=0.5;exitY=1;exitDx=0;exitDy=0;entryX=0.5;entryY=1;entryDx=0;entryDy=0;endArrow=none;endFill=0;" edge="1" parent="1" source="DY3PiAdyVnmW26J06P4--122" target="DY3PiAdyVnmW26J06P4--116">
          <mxGeometry relative="1" as="geometry" />
        </mxCell>
        <mxCell id="DY3PiAdyVnmW26J06P4--335" style="edgeStyle=orthogonalEdgeStyle;rounded=0;orthogonalLoop=1;jettySize=auto;html=1;exitX=0.5;exitY=1;exitDx=0;exitDy=0;entryX=0.5;entryY=1;entryDx=0;entryDy=0;endArrow=none;endFill=0;" edge="1" parent="1" source="DY3PiAdyVnmW26J06P4--128" target="DY3PiAdyVnmW26J06P4--122">
          <mxGeometry relative="1" as="geometry" />
        </mxCell>
        <mxCell id="DY3PiAdyVnmW26J06P4--336" style="edgeStyle=orthogonalEdgeStyle;rounded=0;orthogonalLoop=1;jettySize=auto;html=1;exitX=0.5;exitY=1;exitDx=0;exitDy=0;entryX=0.5;entryY=1;entryDx=0;entryDy=0;endArrow=none;endFill=0;" edge="1" parent="1" source="DY3PiAdyVnmW26J06P4--134" target="DY3PiAdyVnmW26J06P4--128">
          <mxGeometry relative="1" as="geometry" />
        </mxCell>
        <mxCell id="DY3PiAdyVnmW26J06P4--337" style="edgeStyle=orthogonalEdgeStyle;rounded=0;orthogonalLoop=1;jettySize=auto;html=1;exitX=0.5;exitY=1;exitDx=0;exitDy=0;entryX=0.5;entryY=1;entryDx=0;entryDy=0;endArrow=none;endFill=0;" edge="1" parent="1" source="DY3PiAdyVnmW26J06P4--140" target="DY3PiAdyVnmW26J06P4--134">
          <mxGeometry relative="1" as="geometry" />
        </mxCell>
      </root>
    </mxGraphModel>
  </diagram>
</mxfile>
